<svg width="140" height="50" viewBox="0 0 140 50" fill="none" xmlns="http://www.w3.org/2000/svg">
<g clip-path="url(#clip0_18001_244)">
<path d="M15.9739 6.25H0.729156V42.7083L15.9739 6.25Z" fill="white"/>
<path d="M26.7008 6.25H41.9257V42.7083L26.7008 6.25Z" fill="white"/>
<path d="M21.336 19.6875L31.0391 42.7086H24.673L21.773 35.3792H14.672L21.336 19.6875Z" fill="white"/>
<path d="M66.7956 29.4343L68.5932 34.5887C68.6528 34.7178 68.7421 34.7774 68.9011 34.7774H72.3572C72.5459 34.7774 72.5757 34.688 72.5459 34.4993L65.4052 14.6662C65.3754 14.5073 65.3456 14.4775 65.1867 14.4775H60.8963C60.7771 14.4775 60.7076 14.5669 60.7076 14.696C60.648 15.7388 60.5586 16.0566 60.4295 16.3645L54.0635 34.4695C54.0337 34.688 54.1032 34.7774 54.282 34.7774H57.3706C57.5593 34.7774 57.6487 34.7178 57.7182 34.5291L59.4165 29.4343H66.7956ZM60.3997 26.0675C61.3333 23.247 62.5648 19.632 63.0614 17.5662H63.0912C63.7069 19.7313 65.1569 24.0217 65.8124 26.0675H60.3997Z" fill="white"/>
<path d="M81.7254 35.0843C83.5826 35.0843 85.559 34.7467 87.5651 33.8826C87.724 33.823 87.7538 33.7535 87.7538 33.6046C87.6942 33.0484 87.6247 32.244 87.6247 31.6282V12.9571C87.6247 12.8379 87.6247 12.7783 87.4757 12.7783H84.109C83.9799 12.7783 83.9203 12.8379 83.9203 12.9968V19.3231C83.3939 19.2636 83.0264 19.2338 82.5894 19.2338C77.1569 19.2338 73.82 22.819 73.82 27.2981C73.82 32.4922 77.2463 35.0843 81.7254 35.0843ZM83.9203 31.6282C83.3641 31.807 82.7484 31.8765 82.1227 31.8765C79.6597 31.8765 77.6436 30.4861 77.6436 27.1094C77.6436 24.12 79.7193 22.3522 82.4703 22.3522C83.0264 22.3522 83.5131 22.4118 83.9203 22.5707V31.6282Z" fill="white"/>
<path d="M98.4937 19.2334C93.8557 19.2334 90.9855 22.7889 90.9855 27.1786C90.9855 31.1015 93.2697 35.084 98.4242 35.084C102.784 35.084 105.843 31.8761 105.843 27.0792C105.843 22.8484 103.251 19.2334 98.4937 19.2334ZM98.305 22.3519C100.927 22.3519 102.039 24.6063 102.039 27.1786C102.039 30.3566 100.401 31.9357 98.4937 31.9357C96.1399 31.9357 94.7495 29.9594 94.7495 27.109C94.7495 24.1793 96.2293 22.3519 98.305 22.3519Z" fill="white"/>
<path d="M109.324 12.7783C109.195 12.7783 109.106 12.8379 109.106 12.9968V34.1309C109.106 34.2203 109.195 34.3792 109.324 34.409C110.804 34.8659 112.353 35.0843 113.952 35.0843C118.531 35.0843 122.98 32.244 122.98 26.5234C122.98 22.382 120.139 19.2338 115.69 19.2338C114.667 19.2338 113.714 19.3927 112.88 19.6707L112.84 13.0266C112.84 12.8081 112.78 12.7783 112.562 12.7783H109.324ZM119.176 26.9008C119.176 30.3272 116.832 31.9361 114.3 31.9361C113.773 31.9361 113.307 31.9063 112.88 31.7772V22.7594C113.366 22.5707 113.952 22.4118 115.035 22.4118C117.478 22.4118 119.176 23.9611 119.176 26.9008Z" fill="white"/>
<path d="M135.545 28.0128C137.055 28.0128 138.296 27.983 138.723 27.8837C138.882 27.8539 138.942 27.7943 138.972 27.6652C139.061 27.3275 139.101 26.6224 139.101 25.7584C139.101 22.8187 137.333 19.2334 132.764 19.2334C128.097 19.2334 125.505 23.0371 125.505 27.3275C125.505 31.1313 127.511 35.084 133.132 35.084C135.237 35.084 136.598 34.7463 137.77 34.1902C137.889 34.1306 137.949 34.0313 137.949 33.8525V31.2802C137.949 31.1313 137.859 31.1015 137.77 31.1611C136.598 31.6576 135.327 31.9059 133.936 31.9059C130.788 31.9059 129.358 30.1679 129.269 28.0128H135.545ZM129.269 25.3512C129.517 23.8416 130.47 22.2029 132.606 22.2029C134.959 22.2029 135.575 24.1793 135.575 25.0731C135.575 25.1029 135.575 25.232 135.575 25.3214C135.446 25.3512 135.049 25.3512 133.877 25.3512H129.269Z" fill="white"/>
</g>
<defs>
<clipPath id="clip0_18001_244">
<rect width="138.542" height="50" fill="white" transform="translate(0.729156)"/>
</clipPath>
</defs>
</svg>
