<svg width="24" height="24" viewBox="0 0 24 24" fill="none" xmlns="http://www.w3.org/2000/svg">
<g clip-path="url(#clip0_18001_262)">
<path d="M12 0.75C7.08751 0.75 2.92501 3.9 1.38751 8.25H22.6125C21.075 3.9 16.9125 0.75 12 0.75Z" fill="#FF0000"/>
<path d="M12 23.25C16.9125 23.25 21.075 20.1375 22.6125 15.75H1.38751C2.92501 20.1375 7.08751 23.25 12 23.25Z" fill="black"/>
<path d="M1.3875 8.25C0.975 9.4125 0.75 10.6875 0.75 12C0.75 13.3125 0.975 14.5875 1.3875 15.75H22.6125C23.025 14.5875 23.25 13.3125 23.25 12C23.25 10.6875 23.025 9.4125 22.6125 8.25H1.3875Z" fill="#F9F9F9"/>
<path d="M11.4748 9.41289C11.5873 9.33789 11.6623 9.41289 11.7373 9.48789C11.7748 9.56289 11.7748 9.78789 11.6998 10.0504C11.6623 10.2004 11.5498 10.3504 11.4748 10.4629C11.6248 10.4629 11.8123 10.4254 11.9998 10.3504C12.1873 10.4254 12.3373 10.4629 12.5248 10.4629C12.4498 10.3129 12.3748 10.0129 12.4123 9.78789C12.4123 9.45039 12.3748 9.33789 12.2998 9.26289C12.2248 9.18789 12.0373 9.15039 11.9248 9.15039C11.8498 9.15039 11.8498 9.18789 11.8498 9.18789C11.6998 9.15039 11.5873 9.15039 11.5123 9.18789C11.4373 9.26289 11.4373 9.45039 11.4748 9.41289Z" fill="white"/>
<path d="M13.9877 10.5377C13.9127 10.1252 13.5002 10.2377 13.1627 10.4252C13.0127 10.5002 12.8627 10.5752 12.7127 10.5752H12.6002C12.4127 10.5752 12.1877 10.5377 12.0002 10.4627C11.8127 10.5377 11.5877 10.5752 11.4002 10.5752H11.3252C11.1377 10.5752 10.9877 10.5002 10.8377 10.3877C10.5377 10.2377 10.1252 10.1252 10.0127 10.5002C10.0877 10.4627 10.1627 10.3877 10.2002 10.3877L10.0502 13.9877L10.1252 13.9127L10.2752 10.4252C10.3127 10.4627 10.4627 10.6127 10.5002 10.6127L10.3877 13.6502L10.5002 13.5377L10.6127 10.6502C10.6502 10.6877 10.7627 10.7627 10.8002 10.8002L10.6877 13.3127L10.9877 13.0502L11.2877 12.0377C11.0252 11.4752 11.0627 10.9877 11.0627 10.9877H11.1377C11.3252 10.9877 11.7377 10.8752 11.9252 10.7627C11.9627 10.7627 11.9627 10.7252 12.0002 10.7252C12.0002 10.7627 12.0377 10.7627 12.0752 10.8002C12.2627 10.9127 12.6752 11.0252 12.8627 11.0252H12.9377C12.9377 11.0252 12.9752 11.5127 12.7127 12.0752L12.9752 13.0502L13.2752 13.3127L13.1627 10.8377C13.2002 10.8002 13.2752 10.7252 13.3502 10.6877L13.4627 13.5002L13.5752 13.6127L13.4627 10.6127C13.5002 10.5752 13.6502 10.4627 13.6877 10.4252L13.8377 13.8752L13.9127 13.9502L13.7627 10.3877C13.8002 10.4252 13.9127 10.5002 13.9877 10.5377Z" fill="white"/>
<path d="M11.6631 11.1376V12.6001C11.6631 12.6001 11.6631 12.6376 11.7006 12.6376C11.7381 12.7126 11.8131 12.7501 11.8506 12.8251L11.9631 12.9376L12.0756 12.8251L12.2631 12.6376V11.2126C12.1506 11.1751 12.0381 11.1376 11.9631 11.0626C11.9256 11.0251 11.8131 11.0626 11.6631 11.1376Z" fill="white"/>
<path d="M13.6125 14.2129C13.6125 14.0254 13.425 14.0254 13.275 14.0629C13.2375 14.0629 13.2375 14.0629 13.2 14.1004L12.975 13.2754L14.2125 14.4754L14.0625 10.5754C14.025 9.97539 13.5375 10.1254 13.2 10.3504C13.0125 10.4629 12.8625 10.5379 12.675 10.5379C12.4125 10.0879 12.5625 9.48789 12.375 9.33789C12.3 9.26289 12.0375 9.15039 11.85 9.15039C11.7375 9.15039 11.775 9.22539 11.775 9.22539C11.5875 9.18789 11.4375 9.18789 11.3625 9.26289C11.2875 9.30039 11.3625 9.67539 11.4 9.60039C11.5125 9.48789 11.55 9.52539 11.625 9.63789C11.7 9.75039 11.55 10.2004 11.3625 10.5379C11.1375 10.5379 10.95 10.4629 10.7625 10.3504C10.3875 10.1254 9.9 10.0129 9.9 10.5754L9.75 14.4379L10.9875 13.2754L10.7625 14.0629C10.725 14.0629 10.725 14.0629 10.6875 14.0254C10.5375 13.9879 10.35 13.9879 10.35 14.1754C10.125 14.1379 10.05 14.4754 10.275 14.5504C10.275 14.6629 10.275 14.7379 10.425 14.7379C10.7625 14.8504 11.3625 14.8879 11.9625 14.8879C12.5625 14.8879 13.1625 14.8504 13.5 14.7379C13.65 14.7004 13.65 14.6254 13.65 14.5504C13.95 14.4754 13.8375 14.1379 13.6125 14.2129ZM11.7 12.6004C11.7 12.5629 11.7 12.5629 11.7 12.6004L11.6625 12.5629V11.1379C11.8125 11.1004 11.925 11.0629 12 10.9879C12.075 11.0629 12.1875 11.1004 12.3 11.1379V12.5629C12.225 12.6379 12.1875 12.7129 12.1125 12.7504L12 12.8629L11.8875 12.7504C11.8125 12.7129 11.775 12.6379 11.7 12.6004ZM11.7 10.0879C11.775 9.82539 11.775 9.60039 11.7375 9.52539C11.6625 9.45039 11.5875 9.37539 11.475 9.45039C11.4375 9.48789 11.4375 9.30039 11.5125 9.26289C11.5875 9.22539 11.7 9.22539 11.85 9.26289C11.85 9.26289 11.85 9.18789 11.925 9.22539C12.0375 9.22539 12.2625 9.30039 12.3 9.33789C12.3375 9.37539 12.4125 9.52539 12.4125 9.86289C12.4125 10.0879 12.45 10.3879 12.525 10.5379C12.375 10.5379 12.1875 10.5004 12 10.4254C11.8125 10.5004 11.6625 10.5379 11.475 10.5379C11.55 10.3879 11.6625 10.2379 11.7 10.0879ZM10.725 13.4254L10.8375 10.9129C10.8 10.8754 10.725 10.8004 10.65 10.7629L10.5 13.6129L10.3875 13.7254L10.5 10.6879C10.4625 10.6504 10.3125 10.5379 10.275 10.5004L10.125 13.9879L10.05 14.0629L10.2 10.4629C10.1625 10.4629 10.05 10.5004 10.0125 10.5754C10.125 10.2004 10.5375 10.3129 10.8375 10.5004C10.9875 10.6129 11.175 10.6504 11.325 10.6879H11.4C11.5875 10.6879 11.775 10.6504 12 10.5754C12.225 10.6504 12.4125 10.6879 12.6 10.6879H12.7125C12.8625 10.6504 13.0125 10.6129 13.1625 10.5379C13.5 10.3504 13.9125 10.2379 13.9875 10.6504C13.9125 10.6129 13.8 10.5379 13.7625 10.5379L13.9125 14.1004L13.8375 14.0254L13.6875 10.5004C13.65 10.5379 13.5 10.6879 13.4625 10.6879L13.575 13.6879L13.4625 13.5754L13.35 10.7629C13.3125 10.8004 13.2 10.8754 13.1625 10.9129L13.275 13.3879L12.975 13.1254L12.7125 12.1504C12.975 11.5879 12.9375 11.1004 12.9375 11.1004H12.8625C12.675 11.1004 12.2625 11.0254 12.075 10.8754C12.0375 10.8754 12.0375 10.8379 12 10.8004C12 10.8004 11.9625 10.8379 11.925 10.8379C11.7375 10.9504 11.325 11.0629 11.1375 11.0629H11.0625C11.0625 11.0629 11.025 11.5504 11.2875 12.1129L10.9875 13.1254L10.725 13.4254ZM12 14.1754H11.5875L11.85 12.9004C11.8875 12.9379 11.925 12.9754 12 13.0129C12.0375 12.9754 12.1125 12.9379 12.15 12.9004L12.45 14.1754H12Z" fill="#FFC700"/>
</g>
<defs>
<clipPath id="clip0_18001_262">
<rect width="24" height="24" fill="white"/>
</clipPath>
</defs>
</svg>
