<svg width="89" height="88" viewBox="0 0 89 88" fill="none" xmlns="http://www.w3.org/2000/svg">
<path d="M28.8109 18.5716L29.953 51.7712H18.6773L19.8194 18.5716C18.4039 17.3331 17.5031 15.4994 17.5031 13.4566C17.5031 9.67656 20.5593 6.63647 24.3232 6.63647C28.1032 6.63647 31.1433 9.69264 31.1433 13.4566C31.1433 15.4994 30.2425 17.3331 28.8109 18.5716Z" stroke="#817EF0" stroke-width="4" stroke-miterlimit="10" stroke-linecap="round" stroke-linejoin="round"/>
<path d="M32.7032 73.0196C32.7032 77.6521 28.9554 81.3999 24.3229 81.3999C19.6904 81.3999 15.9426 77.6521 15.9426 73.0196C15.9426 69.9152 17.6315 64.3658 20.1569 61.0684H28.505C31.0143 64.3658 32.7032 69.9152 32.7032 73.0196Z" stroke="#817EF0" stroke-width="4" stroke-miterlimit="10" stroke-linecap="round" stroke-linejoin="round"/>
<path d="M35.824 51.7712H12.8063V61.0684H35.824V51.7712Z" stroke="#817EF0" stroke-width="4" stroke-miterlimit="10" stroke-linecap="round" stroke-linejoin="round"/>
<path d="M40.5697 25.842L58.3598 66.5373L77.3724 27.0806L59.5822 44.8546L40.5697 25.842Z" stroke="#817EF0" stroke-width="4" stroke-miterlimit="10" stroke-linecap="round" stroke-linejoin="round"/>
</svg>
