<svg width="89" height="88" viewBox="0 0 89 88" fill="none" xmlns="http://www.w3.org/2000/svg">
<g clip-path="url(#clip0_18001_307)">
<path d="M55.3591 44.6699L45.7462 73.4232H25.3605L15.7475 44.6699C15.7475 44.6699 34.4637 35.5788 35.5182 10.3139C35.5358 9.59152 35.5533 8.85155 35.5533 8.11157C35.5533 8.86917 35.5709 9.62676 35.5885 10.3667C36.6605 35.5964 55.3591 44.6699 55.3591 44.6699Z" stroke="#817EF0" stroke-width="4" stroke-miterlimit="10"/>
<path d="M50.5619 73.4231H20.5456V86.6193H50.5619V73.4231Z" stroke="#817EF0" stroke-width="4" stroke-miterlimit="10"/>
<path d="M35.5529 8.11157V41.6043" stroke="#817EF0" stroke-width="4" stroke-miterlimit="10"/>
<path d="M40.1752 46.5196C40.1752 49.0743 38.1014 51.1533 35.5532 51.1533C33.005 51.1533 30.9313 49.0743 30.9313 46.5196C30.9313 43.965 33.005 41.886 35.5532 41.886C38.1014 41.9036 40.1752 43.965 40.1752 46.5196Z" stroke="#817EF0" stroke-width="4" stroke-miterlimit="10"/>
<path d="M72.8097 7.70622C72.8097 7.70622 66.5886 -1.33205 55.8509 7.70622C45.1132 16.7445 35.4652 10.2961 35.4652 10.2961" stroke="#817EF0" stroke-width="4" stroke-miterlimit="10"/>
</g>
<defs>
<clipPath id="clip0_18001_307">
<rect width="88" height="88" fill="white" transform="translate(0.5)"/>
</clipPath>
</defs>
</svg>
