<svg width="89" height="88" viewBox="0 0 89 88" fill="none" xmlns="http://www.w3.org/2000/svg">
<path d="M29.6544 60.3631H18.0361C17.68 60.3631 17.3907 60.0738 17.3907 59.7177V51.9721C17.3907 51.616 17.68 51.3267 18.0361 51.3267C18.3923 51.3267 18.6816 51.616 18.6816 51.9721V59.0722H29.6544C30.0106 59.0722 30.2999 59.3615 30.2999 59.7177C30.2999 60.0738 30.0106 60.3631 29.6544 60.3631Z" fill="#817EF0"/>
<path d="M79.9992 60.3633H46.4352C46.079 60.3633 45.7897 60.074 45.7897 59.7178C45.7897 59.3617 46.079 59.0724 46.4352 59.0724H79.353V26.7992H47.7246C47.3685 26.7992 47.0792 26.5099 47.0792 26.1538C47.0792 25.7976 47.3685 25.5083 47.7246 25.5083H79.9978C80.3539 25.5083 80.6432 25.7976 80.6432 26.1538V59.7178C80.6432 60.074 80.3539 60.3633 79.9978 60.3633H79.9992Z" fill="white"/>
<path d="M38.6906 81.0181C38.6456 81.0181 38.5978 81.0129 38.5511 81.0026C38.2025 80.9254 37.9846 80.5807 38.0607 80.232L40.6426 68.6137C40.7198 68.2662 41.0609 68.0495 41.4131 68.1233C41.7617 68.2005 41.9796 68.5451 41.9035 68.8938L39.3217 80.5121C39.2548 80.813 38.9862 81.0181 38.6906 81.0181Z" fill="white"/>
<path d="M59.3444 81.0181C59.0488 81.0181 58.7802 80.813 58.7145 80.5121L56.1327 68.8938C56.0555 68.5451 56.2745 68.2005 56.6231 68.1233C56.9758 68.0495 57.3164 68.2668 57.3936 68.6137L59.9755 80.232C60.0527 80.5807 59.8337 80.9253 59.4851 81.0025C59.4372 81.0129 59.3894 81.0181 59.3444 81.0181Z" fill="white"/>
<path d="M67.0904 69.3996H17.6797C15.3842 69.3996 13.5176 67.507 13.5176 65.1794V51.9721C13.5176 51.616 13.8069 51.3267 14.1631 51.3267C14.5192 51.3267 14.8085 51.616 14.8085 51.9721V65.1794C14.8085 66.7948 16.0954 68.1087 17.6797 68.1087H67.0904C67.4466 68.1087 67.7359 68.398 67.7359 68.7542C67.7359 69.1103 67.4466 69.3996 67.0904 69.3996Z" fill="white"/>
<path d="M80.3555 69.3995H77.4176C77.0614 69.3995 76.7721 69.1102 76.7721 68.754C76.7721 68.3979 77.0614 68.1086 77.4176 68.1086H80.3555C81.9398 68.1086 83.2267 66.7946 83.2267 65.1793V25.8555C83.2267 24.2401 81.9398 22.9262 80.3555 22.9262H47.7269C47.3707 22.9262 47.0814 22.6369 47.0814 22.2807C47.0814 21.9246 47.3707 21.6353 47.7269 21.6353H80.3555C82.651 21.6353 84.5176 23.5278 84.5176 25.8555V65.1793C84.5176 67.5063 82.651 69.3991 80.3555 69.3991V69.3995Z" fill="white"/>
<path d="M74.1902 83.5997H70.3174C68.1822 83.5997 66.4446 81.8622 66.4446 79.7269V68.1086C66.4446 65.9734 68.1822 64.2358 70.3174 64.2358H74.1902C76.3255 64.2358 78.063 65.9734 78.063 68.1086V79.7269C78.063 81.8622 76.3255 83.5997 74.1902 83.5997ZM70.3174 65.5268C68.8934 65.5268 67.7356 66.6846 67.7356 68.1086V79.7269C67.7356 81.151 68.8934 82.3088 70.3174 82.3088H74.1902C75.6142 82.3088 76.772 81.151 76.772 79.7269V68.1086C76.772 66.6846 75.6142 65.5268 74.1902 65.5268H70.3174Z" fill="white"/>
<path d="M72.2529 71.9817C71.8967 71.9817 71.6074 71.6924 71.6074 71.3362V68.7543C71.6074 68.3982 71.8967 68.1089 72.2529 68.1089C72.609 68.1089 72.8983 68.3982 72.8983 68.7543V71.3362C72.8983 71.6924 72.609 71.9817 72.2529 71.9817Z" fill="white"/>
<path d="M61.9255 83.5998H36.107C35.0397 83.5998 34.1706 82.7308 34.1706 81.6634C34.1706 80.5961 35.0397 79.7271 36.107 79.7271H61.9255C62.9928 79.7271 63.8619 80.5961 63.8619 81.6634C63.8619 82.7308 62.9928 83.5998 61.9255 83.5998ZM36.107 81.018C35.752 81.018 35.4615 81.3073 35.4615 81.6634C35.4615 82.0196 35.752 82.3089 36.107 82.3089H61.9255C62.2805 82.3089 62.571 82.0196 62.571 81.6634C62.571 81.3073 62.2805 81.018 61.9255 81.018H36.107Z" fill="white"/>
<path d="M47.7278 52.2407H5.12727C4.77111 52.2407 4.48181 51.9514 4.48181 51.5953V3.83101C4.48181 3.47485 4.77111 3.18555 5.12727 3.18555H47.7278C48.084 3.18555 48.3733 3.47485 48.3733 3.83101V51.5953C48.3733 51.9514 48.084 52.2407 47.7278 52.2407ZM5.772 50.9498H47.0816V4.47647H5.772V50.9498Z" fill="white"/>
<path d="M77.4175 19.0538H56.7627C56.4065 19.0538 56.1172 18.7645 56.1172 18.4083V6.78999C56.1172 6.43383 56.4065 6.14453 56.7627 6.14453H77.4175C77.7736 6.14453 78.0629 6.43383 78.0629 6.78999V18.4083C78.0629 18.7645 77.7736 19.0538 77.4175 19.0538ZM57.4089 17.7629H76.7727V7.43546H57.4089V17.7629Z" fill="white"/>
<path d="M76.1294 35.8355H51.6018C51.2457 35.8355 50.9564 35.5462 50.9564 35.19V30.0263C50.9564 29.6702 51.2457 29.3809 51.6018 29.3809H76.1294C76.4856 29.3809 76.7749 29.6702 76.7749 30.0263V35.19C76.7749 35.5462 76.4856 35.8355 76.1294 35.8355ZM52.2465 34.5446H75.4832V30.6718H52.2465V34.5446Z" fill="#817EF0"/>
<path d="M59.3454 48.7452H51.5999C51.2437 48.7452 50.9544 48.4559 50.9544 48.0997V42.936C50.9544 42.5798 51.2437 42.2905 51.5999 42.2905H59.3454C59.7016 42.2905 59.9909 42.5798 59.9909 42.936V48.0997C59.9909 48.4559 59.7016 48.7452 59.3454 48.7452ZM52.2453 47.4542H58.7V43.5815H52.2453V47.4542Z" fill="#817EF0"/>
<path d="M76.1282 48.7452H63.219C62.8628 48.7452 62.5735 48.4559 62.5735 48.0997V42.936C62.5735 42.5798 62.8628 42.2905 63.219 42.2905H76.1282C76.4844 42.2905 76.7737 42.5798 76.7737 42.936V48.0997C76.7737 48.4559 76.4844 48.7452 76.1282 48.7452ZM63.8644 47.4542H75.4828V43.5815H63.8644V47.4542Z" fill="#817EF0"/>
<path d="M76.128 56.4906H21.9092C21.553 56.4906 21.2637 56.2013 21.2637 55.8452C21.2637 55.489 21.553 55.1997 21.9092 55.1997H76.128C76.4842 55.1997 76.7735 55.489 76.7735 55.8452C76.7735 56.2013 76.4842 56.4906 76.128 56.4906Z" fill="#817EF0"/>
<path d="M76.1294 52.6176H51.6018C51.2457 52.6176 50.9564 52.3283 50.9564 51.9721C50.9564 51.616 51.2457 51.3267 51.6018 51.3267H76.1294C76.4856 51.3267 76.7749 51.616 76.7749 51.9721C76.7749 52.3283 76.4856 52.6176 76.1294 52.6176Z" fill="#817EF0"/>
<path d="M76.1294 39.7084H51.6018C51.2457 39.7084 50.9564 39.4191 50.9564 39.0629C50.9564 38.7068 51.2457 38.4175 51.6018 38.4175H76.1294C76.4856 38.4175 76.7749 38.7068 76.7749 39.0629C76.7749 39.4191 76.4856 39.7084 76.1294 39.7084Z" fill="#817EF0"/>
<path d="M12.8719 15.1807C11.0917 15.1807 9.64456 13.7324 9.64456 11.9534C9.64456 10.1743 11.0917 8.72607 12.8719 8.72607C14.6521 8.72607 16.0992 10.1743 16.0992 11.9534C16.0992 13.7324 14.6521 15.1807 12.8719 15.1807ZM12.8719 10.017C11.8046 10.017 10.9355 10.8861 10.9355 11.9534C10.9355 13.0207 11.8046 13.8898 12.8719 13.8898C13.9392 13.8898 14.8083 13.0207 14.8083 11.9534C14.8083 10.8861 13.9392 10.017 12.8719 10.017Z" fill="#817EF0"/>
<path d="M15.4537 19.0536H10.29C9.93386 19.0536 9.64456 18.7643 9.64456 18.4082C9.64456 18.052 9.93386 17.7627 10.29 17.7627H15.4537C15.8099 17.7627 16.0992 18.052 16.0992 18.4082C16.0992 18.7643 15.8099 19.0536 15.4537 19.0536Z" fill="#817EF0"/>
<path d="M29.6554 19.0536H23.2008C22.8447 19.0536 22.5554 18.7643 22.5554 18.4082C22.5554 18.052 22.8447 17.7627 23.2008 17.7627H29.6554C30.0116 17.7627 30.3009 18.052 30.3009 18.4082C30.3009 18.7643 30.0116 19.0536 29.6554 19.0536Z" fill="#817EF0"/>
<path d="M39.9812 15.1807C38.2011 15.1807 36.7539 13.7324 36.7539 11.9534C36.7539 10.1743 38.201 8.72607 39.9812 8.72607C41.7614 8.72607 43.2085 10.1743 43.2085 11.9534C43.2085 13.7324 41.7614 15.1807 39.9812 15.1807ZM39.9812 10.017C38.9139 10.017 38.0448 10.8861 38.0448 11.9534C38.0448 13.0207 38.9139 13.8898 39.9812 13.8898C41.0485 13.8898 41.9176 13.0207 41.9176 11.9534C41.9176 10.8861 41.0485 10.017 39.9812 10.017Z" fill="#817EF0"/>
<path d="M42.5631 19.0536H37.3994C37.0432 19.0536 36.7539 18.7643 36.7539 18.4082C36.7539 18.052 37.0432 17.7627 37.3994 17.7627H42.5631C42.9192 17.7627 43.2085 18.052 43.2085 18.4082C43.2085 18.7643 42.9192 19.0536 42.5631 19.0536Z" fill="#817EF0"/>
<path d="M29.6554 15.1807H23.2008C22.8447 15.1807 22.5554 14.8914 22.5554 14.5352V9.37154C22.5554 9.01537 22.8447 8.72607 23.2008 8.72607H29.6554C30.0116 8.72607 30.3009 9.01537 30.3009 9.37154V14.5352C30.3009 14.8914 30.0116 15.1807 29.6554 15.1807ZM23.8463 13.8898H29.01V10.017H23.8463V13.8898Z" fill="#817EF0"/>
<path d="M42.5632 31.9628H10.29C9.93386 31.9628 9.64456 31.6735 9.64456 31.3173C9.64456 30.9612 9.93386 30.6719 10.29 30.6719H42.5632C42.9193 30.6719 43.2086 30.9612 43.2086 31.3173C43.2086 31.6735 42.9193 31.9628 42.5632 31.9628Z" fill="#817EF0"/>
<path d="M42.5632 47.454H10.29C9.93386 47.454 9.64456 47.1647 9.64456 46.8085C9.64456 46.4524 9.93386 46.1631 10.29 46.1631H42.5632C42.9193 46.1631 43.2086 46.4524 43.2086 46.8085C43.2086 47.1647 42.9193 47.454 42.5632 47.454Z" fill="#817EF0"/>
<path d="M70.9636 11.308H68.3818C68.0256 11.308 67.7363 11.0187 67.7363 10.6626C67.7363 10.3064 68.0256 10.0171 68.3818 10.0171H70.9636C71.3198 10.0171 71.6091 10.3064 71.6091 10.6626C71.6091 11.0187 71.3198 11.308 70.9636 11.308Z" fill="white"/>
<path d="M73.5455 15.1806H68.3818C68.0256 15.1806 67.7363 14.8913 67.7363 14.5351C67.7363 14.1789 68.0256 13.8896 68.3818 13.8896H73.5455C73.9016 13.8896 74.1909 14.1789 74.1909 14.5351C74.1909 14.8913 73.9016 15.1806 73.5455 15.1806Z" fill="white"/>
<path d="M65.8013 15.1808H60.6376C60.2815 15.1808 59.9922 14.8915 59.9922 14.5353V10.6626C59.9922 10.3064 60.2815 10.0171 60.6376 10.0171H65.8013C66.1575 10.0171 66.4468 10.3064 66.4468 10.6626V14.5353C66.4468 14.8915 66.1575 15.1808 65.8013 15.1808ZM61.2831 13.8899H65.1559V11.308H61.2831V13.8899Z" fill="white"/>
<path d="M39.9829 60.3632H33.5283C33.1721 60.3632 32.8828 60.0739 32.8828 59.7177C32.8828 59.3616 33.1721 59.0723 33.5283 59.0723H39.9829C40.3391 59.0723 40.6284 59.3616 40.6284 59.7177C40.6284 60.0739 40.3391 60.3632 39.9829 60.3632Z" fill="#817EF0"/>
</svg>
