<svg width="89" height="88" viewBox="0 0 89 88" fill="none" xmlns="http://www.w3.org/2000/svg">
<path d="M43.1342 25.0314L43.1342 25.0313C43.1641 25.0148 43.2112 24.9954 43.2684 24.9954C43.308 24.9954 43.3528 25.0046 43.401 25.0315L43.4011 25.0315L46.2547 26.6097L46.2547 26.6097C46.3705 26.6736 46.3874 26.7742 46.3874 26.8291C46.3874 26.884 46.3705 26.9846 46.2547 27.0485L46.2547 27.0485L43.4009 28.6267L43.4009 28.6267C43.2852 28.6908 43.1848 28.6545 43.1342 28.6267L43.1342 28.6267C43.0836 28.5989 43.0017 28.5343 43.0017 28.4073V25.2508C43.0017 25.1239 43.0836 25.0593 43.1342 25.0314ZM41.2953 28.4071C41.2953 29.0908 41.6646 29.703 42.2819 30.0444C42.5904 30.2151 42.9289 30.3004 43.2676 30.3004C43.6062 30.3004 43.9448 30.215 44.2532 30.0442L47.1069 28.4661C47.7242 28.1247 48.0935 27.5127 48.0935 26.8288C48.0935 26.1449 47.7242 25.5328 47.1069 25.1915L44.2532 23.6133C44.2532 23.6133 44.2532 23.6133 44.2532 23.6133C43.6362 23.272 42.8991 23.272 42.2819 23.6133C41.6646 23.9547 41.2953 24.5669 41.2953 25.2506V28.4071Z" fill="#817EF0" stroke="white" stroke-width="0.05"/>
<path d="M36.3111 26.8287C36.3111 31.2575 40.0722 34.8587 44.6929 34.8587C49.3136 34.8587 53.0746 31.2575 53.0746 26.8287C53.0746 22.3999 49.3136 18.7987 44.6929 18.7987C40.0722 18.7987 36.3111 22.3999 36.3111 26.8287ZM38.0174 26.8287C38.0174 23.3044 41.011 20.4353 44.6929 20.4353C48.3749 20.4353 51.3683 23.3044 51.3683 26.8287C51.3683 30.3531 48.3749 33.2222 44.6929 33.2222C41.011 33.2222 38.0174 30.3531 38.0174 26.8287Z" fill="#817EF0" stroke="white" stroke-width="0.05"/>
<path d="M19.0189 47.0825H70.3643C70.8345 47.0825 71.2174 46.7172 71.2174 46.2642V7.39338C71.2174 6.94052 70.8345 6.5751 70.3643 6.5751H19.0189C18.5488 6.5751 18.1657 6.94052 18.1657 7.39338V46.2642C18.1657 46.7172 18.5488 47.0825 19.0189 47.0825ZM69.5111 8.21166V45.4459H19.872V8.21166H69.5111Z" fill="#817EF0" stroke="white" stroke-width="0.05"/>
<path d="M23.9901 16.9378H30.6153C31.0854 16.9378 31.4684 16.5724 31.4684 16.1196V12.1531C31.4684 11.7003 31.0854 11.3349 30.6153 11.3349H23.9901C23.52 11.3349 23.1369 11.7003 23.1369 12.1531V16.1196C23.1369 16.5724 23.52 16.9378 23.9901 16.9378ZM29.7621 12.9714V15.3013H24.8432V12.9714H29.7621Z" fill="#817EF0" stroke="white" stroke-width="0.05"/>
<path d="M35.5845 16.9378H42.2097C42.6798 16.9378 43.0629 16.5724 43.0629 16.1196V12.1531C43.0629 11.7003 42.6798 11.3349 42.2097 11.3349H35.5845C35.1144 11.3349 34.7314 11.7003 34.7314 12.1531V16.1196C34.7314 16.5724 35.1144 16.9378 35.5845 16.9378ZM41.3566 12.9714V15.3013H36.4377V12.9714H41.3566Z" fill="#817EF0" stroke="white" stroke-width="0.05"/>
<path d="M11.5122 68.5011H77.8747C81.0535 68.5011 83.6416 66.0235 83.6416 62.9759V58.1634C83.6416 57.7104 83.2587 57.3451 82.7884 57.3451H6.59848C6.12839 57.3451 5.74532 57.7104 5.74532 58.1634V62.9759C5.74532 66.0235 8.33326 68.5011 11.5122 68.5011ZM7.45163 62.9759V58.9817H81.9353V62.9759C81.9353 65.1192 80.1148 66.8645 77.8748 66.8645H11.5122C9.27211 66.8645 7.45163 65.1192 7.45163 62.9759Z" fill="white" stroke="#817EF0" stroke-width="0.05"/>
<path d="M6.59842 58.9819H82.7884C83.2586 58.9819 83.6415 58.6166 83.6415 58.1636V22.7039C83.6415 19.0585 80.5457 16.0946 76.7429 16.0946H70.3661C69.8958 16.0946 69.5129 16.4601 69.5129 16.9129C69.5129 17.3658 69.8958 17.7312 70.3661 17.7312H76.7429C79.6069 17.7312 81.9352 19.963 81.9352 22.7039V57.3453H7.45157V22.7039C7.45157 19.963 9.77987 17.7312 12.6439 17.7312H19.0207C19.4908 17.7312 19.8738 17.3658 19.8738 16.9129C19.8738 16.4601 19.4908 16.0946 19.0207 16.0946H12.6439C8.84102 16.0946 5.74526 19.0585 5.74526 22.7039V58.1636C5.74526 58.6166 6.12833 58.9819 6.59842 58.9819Z" fill="white" stroke="#817EF0" stroke-width="0.05"/>
<path d="M47.1763 16.9378H53.8015C54.2717 16.9378 54.6546 16.5724 54.6546 16.1196V12.1531C54.6546 11.7003 54.2717 11.3349 53.8015 11.3349H47.1763C46.706 11.3349 46.3231 11.7003 46.3231 12.1531V16.1196C46.3231 16.5724 46.706 16.9378 47.1763 16.9378ZM52.9483 12.9714V15.3013H48.0294V12.9714H52.9483Z" fill="#817EF0" stroke="white" stroke-width="0.05"/>
<path d="M65.3974 16.9128H58.7722C58.3147 16.9128 57.944 16.5576 57.944 16.1196V12.1531C57.944 11.7151 58.3147 11.3599 58.7722 11.3599H65.3974C65.8549 11.3599 66.2255 11.7151 66.2255 12.1531V16.1196C66.2255 16.5576 65.8549 16.9128 65.3974 16.9128ZM59.6003 15.3263H64.5692V12.9464H59.6003V15.3263Z" fill="#817EF0" stroke="#817EF0" stroke-width="0.05"/>
<path d="M30.6153 42.2981H23.9901C23.5328 42.2981 23.1619 41.9429 23.1619 41.5048V37.5384C23.1619 37.1003 23.5328 36.7451 23.9901 36.7451H30.6153C31.0726 36.7451 31.4434 37.1003 31.4434 37.5384V41.5048C31.4434 41.9429 31.0726 42.2981 30.6153 42.2981ZM24.8182 40.7115H29.7871V38.3317H24.8182V40.7115Z" fill="#817EF0" stroke="#817EF0" stroke-width="0.05"/>
<path d="M42.2097 42.2976H35.5845C35.1272 42.2976 34.7564 41.9424 34.7564 41.5043V37.5379C34.7564 37.0999 35.1272 36.7446 35.5845 36.7446H42.2097C42.667 36.7446 43.0379 37.0999 43.0379 37.5379V41.5043C43.0379 41.9424 42.667 42.2976 42.2097 42.2976ZM36.4127 40.711H41.3816V38.3312H36.4127V40.711Z" fill="#817EF0" stroke="#817EF0" stroke-width="0.05"/>
<path d="M53.8015 42.2976H47.1763C46.7188 42.2976 46.3481 41.9424 46.3481 41.5043V37.5379C46.3481 37.0999 46.7188 36.7446 47.1763 36.7446H53.8015C54.2589 36.7446 54.6296 37.0999 54.6296 37.5379V41.5043C54.6296 41.9424 54.2589 42.2976 53.8015 42.2976ZM48.0044 40.711H52.9733V38.3312H48.0044V40.711Z" fill="#817EF0" stroke="#817EF0" stroke-width="0.05"/>
<path d="M65.3974 42.2981H58.7722C58.3147 42.2981 57.944 41.9429 57.944 41.5048V37.5384C57.944 37.1003 58.3147 36.7451 58.7722 36.7451H65.3974C65.8549 36.7451 66.2255 37.1003 66.2255 37.5384V41.5048C66.2255 41.9429 65.8549 42.2981 65.3974 42.2981ZM59.6003 40.7115H64.5692V38.3317H59.6003V40.7115Z" fill="#817EF0" stroke="#817EF0" stroke-width="0.05"/>
<path d="M35.5845 78.0201H53.8039C54.2741 78.0201 54.657 77.6548 54.657 77.2018V67.6824C54.657 67.2294 54.2741 66.8642 53.8039 66.8642H35.5845C35.1144 66.8642 34.7314 67.2294 34.7314 67.6824V77.2018C34.7314 77.6548 35.1144 78.0201 35.5845 78.0201ZM52.9507 68.5007V76.3835H36.4377V68.5007H52.9507Z" fill="white" stroke="#817EF0" stroke-width="0.05"/>
<path d="M39.7236 78.0206H49.6614C50.1317 78.0206 50.5146 77.6553 50.5146 77.2023V67.6829C50.5146 67.2299 50.1317 66.8646 49.6614 66.8646H39.7236C39.2535 66.8646 38.8705 67.2299 38.8705 67.6829V77.2023C38.8705 77.6553 39.2535 78.0206 39.7236 78.0206ZM48.8083 68.5012V76.384H40.5768V68.5012H48.8083Z" fill="white" stroke="#817EF0" stroke-width="0.05"/>
<path d="M33.101 81.1934H56.2893C57.672 81.1934 58.7987 80.1156 58.7987 78.7885C58.7987 77.4615 57.672 76.3837 56.2893 76.3837H33.101C31.7183 76.3837 30.5916 77.4615 30.5916 78.7885C30.5916 80.1156 31.7183 81.1934 33.101 81.1934ZM32.2979 78.7885C32.2979 78.3659 32.6572 78.0203 33.101 78.0203H56.2893C56.7331 78.0203 57.0924 78.3659 57.0924 78.7885C57.0924 79.2111 56.7331 79.5568 56.2893 79.5568H33.101C32.6572 79.5568 32.2979 79.2111 32.2979 78.7885Z" fill="white" stroke="#817EF0" stroke-width="0.05"/>
</svg>
