<svg width="89" height="88" viewBox="0 0 89 88" fill="none" xmlns="http://www.w3.org/2000/svg">
<mask id="path-1-inside-1_18001_74" fill="white">
<path d="M77.3205 70.7757H11.6795C8.54772 70.7757 6 68.2644 6 65.1775V60.2791C6 59.8331 6.36681 59.4717 6.81915 59.4717H82.1809C82.6333 59.4717 83 59.8331 83 60.2791V65.1775C83 68.2644 80.4521 70.7757 77.3205 70.7757ZM7.6383 61.0865V65.1775C7.6383 67.374 9.45107 69.1609 11.6795 69.1609H77.3207C79.5491 69.1609 81.3619 67.374 81.3619 65.1775V61.0865H7.6383Z"/>
</mask>
<path d="M77.3205 70.7757H11.6795C8.54772 70.7757 6 68.2644 6 65.1775V60.2791C6 59.8331 6.36681 59.4717 6.81915 59.4717H82.1809C82.6333 59.4717 83 59.8331 83 60.2791V65.1775C83 68.2644 80.4521 70.7757 77.3205 70.7757ZM7.6383 61.0865V65.1775C7.6383 67.374 9.45107 69.1609 11.6795 69.1609H77.3207C79.5491 69.1609 81.3619 67.374 81.3619 65.1775V61.0865H7.6383Z" fill="#817EF0"/>
<path d="M7.6383 61.0865V57.0865H3.6383V61.0865H7.6383ZM81.3619 61.0865H85.3619V57.0865H81.3619V61.0865ZM77.3205 66.7757H11.6795V74.7757H77.3205V66.7757ZM11.6795 66.7757C10.7023 66.7757 10 66.0012 10 65.1775H2C2 70.5277 6.3931 74.7757 11.6795 74.7757V66.7757ZM10 65.1775V60.2791H2V65.1775H10ZM10 60.2791C10 62.0969 8.5209 63.4717 6.81915 63.4717V55.4717C4.21273 55.4717 2 57.5693 2 60.2791H10ZM6.81915 63.4717H82.1809V55.4717H6.81915V63.4717ZM82.1809 63.4717C80.4787 63.4717 79 62.0964 79 60.2791H87C87 57.5698 84.788 55.4717 82.1809 55.4717V63.4717ZM79 60.2791V65.1775H87V60.2791H79ZM79 65.1775C79 66.0011 78.2976 66.7757 77.3205 66.7757V74.7757C82.6067 74.7757 87 70.5278 87 65.1775H79ZM3.6383 61.0865V65.1775H11.6383V61.0865H3.6383ZM3.6383 65.1775C3.6383 69.6373 7.29646 73.1609 11.6795 73.1609V65.1609C11.6688 65.1609 11.6623 65.1599 11.6589 65.1591C11.6552 65.1584 11.6521 65.1574 11.6494 65.1563C11.6431 65.1537 11.6364 65.1493 11.6312 65.1441C11.626 65.139 11.6276 65.1385 11.6313 65.147C11.6332 65.1515 11.6352 65.1574 11.6366 65.1642C11.6381 65.1713 11.6383 65.1762 11.6383 65.1775H3.6383ZM11.6795 73.1609H77.3207V65.1609H11.6795V73.1609ZM77.3207 73.1609C81.7037 73.1609 85.3619 69.6373 85.3619 65.1775H77.3619C77.3619 65.1762 77.3621 65.1713 77.3635 65.1642C77.365 65.1574 77.3669 65.1515 77.3689 65.147C77.3725 65.1385 77.3742 65.139 77.3689 65.1441C77.3637 65.1493 77.3571 65.1537 77.3508 65.1563C77.348 65.1574 77.345 65.1584 77.3413 65.1591C77.3378 65.1599 77.3313 65.1609 77.3207 65.1609V73.1609ZM85.3619 65.1775V61.0865H77.3619V65.1775H85.3619ZM81.3619 57.0865H7.6383V65.0865H81.3619V57.0865Z" fill="#FBFBFB" mask="url(#path-1-inside-1_18001_74)"/>
<mask id="path-3-inside-2_18001_74" fill="white">
<path d="M82.1809 61.0862H6.81915C6.36681 61.0862 6 60.7248 6 60.2787V24.1865C6 20.4913 9.05002 17.4849 12.7989 17.4849H41.3056C41.758 17.4849 42.1248 17.8464 42.1248 18.2923C42.1248 18.7382 41.758 19.0997 41.3056 19.0997H12.7989C9.95338 19.0997 7.6383 21.3817 7.6383 24.1865V59.4713H81.3617V24.1865C81.3617 21.3817 79.0466 19.0997 76.2011 19.0997H57.524C57.0715 19.0997 56.7048 18.7382 56.7048 18.2923C56.7048 17.8464 57.0715 17.4849 57.524 17.4849H76.2011C79.95 17.4849 83 20.4913 83 24.1865V60.2787C83 60.7248 82.6333 61.0862 82.1809 61.0862Z"/>
</mask>
<path d="M82.1809 61.0862H6.81915C6.36681 61.0862 6 60.7248 6 60.2787V24.1865C6 20.4913 9.05002 17.4849 12.7989 17.4849H41.3056C41.758 17.4849 42.1248 17.8464 42.1248 18.2923C42.1248 18.7382 41.758 19.0997 41.3056 19.0997H12.7989C9.95338 19.0997 7.6383 21.3817 7.6383 24.1865V59.4713H81.3617V24.1865C81.3617 21.3817 79.0466 19.0997 76.2011 19.0997H57.524C57.0715 19.0997 56.7048 18.7382 56.7048 18.2923C56.7048 17.8464 57.0715 17.4849 57.524 17.4849H76.2011C79.95 17.4849 83 20.4913 83 24.1865V60.2787C83 60.7248 82.6333 61.0862 82.1809 61.0862Z" fill="#817EF0"/>
<path d="M7.6383 59.4713H3.6383V63.4713H7.6383V59.4713ZM81.3617 59.4713V63.4713H85.3617V59.4713H81.3617ZM82.1809 57.0862H6.81915V65.0862H82.1809V57.0862ZM6.81915 57.0862C8.5209 57.0862 10 58.461 10 60.2787H2C2 62.9886 4.21273 65.0862 6.81915 65.0862V57.0862ZM10 60.2787V24.1865H2V60.2787H10ZM10 24.1865C10 22.7545 11.2046 21.4849 12.7989 21.4849V13.4849C6.89541 13.4849 2 18.228 2 24.1865H10ZM12.7989 21.4849H41.3056V13.4849H12.7989V21.4849ZM41.3056 21.4849C39.6034 21.4849 38.1248 20.1097 38.1248 18.2923H46.1248C46.1248 15.5832 43.9126 13.4849 41.3056 13.4849V21.4849ZM38.1248 18.2923C38.1248 16.4749 39.6034 15.0997 41.3056 15.0997V23.0997C43.9126 23.0997 46.1248 21.0014 46.1248 18.2923H38.1248ZM41.3056 15.0997H12.7989V23.0997H41.3056V15.0997ZM12.7989 15.0997C7.79876 15.0997 3.6383 19.1184 3.6383 24.1865H11.6383C11.6383 23.645 12.108 23.0997 12.7989 23.0997V15.0997ZM3.6383 24.1865V59.4713H11.6383V24.1865H3.6383ZM7.6383 63.4713H81.3617V55.4713H7.6383V63.4713ZM85.3617 59.4713V24.1865H77.3617V59.4713H85.3617ZM85.3617 24.1865C85.3617 19.1184 81.2012 15.0997 76.2011 15.0997V23.0997C76.892 23.0997 77.3617 23.645 77.3617 24.1865H85.3617ZM76.2011 15.0997H57.524V23.0997H76.2011V15.0997ZM57.524 15.0997C59.2266 15.0997 60.7048 16.4754 60.7048 18.2923H52.7048C52.7048 21.0009 54.9163 23.0997 57.524 23.0997V15.0997ZM60.7048 18.2923C60.7048 20.1092 59.2266 21.4849 57.524 21.4849V13.4849C54.9163 13.4849 52.7048 15.5837 52.7048 18.2923H60.7048ZM57.524 21.4849H76.2011V13.4849H57.524V21.4849ZM76.2011 21.4849C77.7954 21.4849 79 22.7545 79 24.1865H87C87 18.228 82.1046 13.4849 76.2011 13.4849V21.4849ZM79 24.1865V60.2787H87V24.1865H79ZM79 60.2787C79 58.4615 80.4787 57.0862 82.1809 57.0862V65.0862C84.788 65.0862 87 62.988 87 60.2787H79Z" fill="#FBFBFB" mask="url(#path-3-inside-2_18001_74)"/>
<mask id="path-5-inside-3_18001_74" fill="white">
<path d="M31.6415 36.6199C31.4273 36.6199 31.2181 36.5371 31.0622 36.3835C30.849 36.1734 30.7702 35.8651 30.8569 35.5806L34.3322 24.1619C34.3712 24.0338 34.4416 23.9174 34.5375 23.8229L53.652 4.98182C54.8897 3.76179 56.5354 3.08984 58.2856 3.08984C60.0361 3.08984 61.6816 3.76179 62.9193 4.98182C64.1572 6.20185 64.8389 7.82398 64.8389 9.5493C64.8389 11.2748 64.1572 12.8967 62.9193 14.1169L43.8052 32.9579C43.7093 33.0523 43.5912 33.1219 43.4613 33.1602L31.8769 36.5858C31.7994 36.6089 31.7201 36.6199 31.6415 36.6199ZM35.8419 24.8207L32.8631 34.6083L42.7927 31.672L61.7611 12.9749C62.6893 12.0598 63.2006 10.8433 63.2006 9.5493C63.2006 8.25531 62.6893 7.03867 61.7611 6.12369C60.8328 5.20854 59.5985 4.70471 58.2856 4.70471C56.9728 4.70471 55.7385 5.20871 54.8103 6.12369L35.8419 24.8207Z"/>
</mask>
<path d="M31.6415 36.6199C31.4273 36.6199 31.2181 36.5371 31.0622 36.3835C30.849 36.1734 30.7702 35.8651 30.8569 35.5806L34.3322 24.1619C34.3712 24.0338 34.4416 23.9174 34.5375 23.8229L53.652 4.98182C54.8897 3.76179 56.5354 3.08984 58.2856 3.08984C60.0361 3.08984 61.6816 3.76179 62.9193 4.98182C64.1572 6.20185 64.8389 7.82398 64.8389 9.5493C64.8389 11.2748 64.1572 12.8967 62.9193 14.1169L43.8052 32.9579C43.7093 33.0523 43.5912 33.1219 43.4613 33.1602L31.8769 36.5858C31.7994 36.6089 31.7201 36.6199 31.6415 36.6199ZM35.8419 24.8207L32.8631 34.6083L42.7927 31.672L61.7611 12.9749C62.6893 12.0598 63.2006 10.8433 63.2006 9.5493C63.2006 8.25531 62.6893 7.03867 61.7611 6.12369C60.8328 5.20854 59.5985 4.70471 58.2856 4.70471C56.9728 4.70471 55.7385 5.20871 54.8103 6.12369L35.8419 24.8207Z" fill="#817EF0"/>
<path d="M31.0622 36.3835L28.2542 39.2322L28.2557 39.2337L31.0622 36.3835ZM30.8569 35.5806L34.6833 36.746L34.6836 36.7452L30.8569 35.5806ZM34.3322 24.1619L30.5056 22.9968L30.5055 22.9972L34.3322 24.1619ZM34.5375 23.8229L31.7295 20.9742H31.7295L34.5375 23.8229ZM53.652 4.98182L56.46 7.83055L53.652 4.98182ZM62.9193 4.98182L60.1114 7.83055L60.1116 7.83073L62.9193 4.98182ZM62.9193 14.1169L60.1114 11.2682L60.1114 11.2682L62.9193 14.1169ZM43.8052 32.9579L46.6131 35.8066L46.6132 35.8066L43.8052 32.9579ZM43.4613 33.1602L42.3309 29.3232L42.327 29.3244L43.4613 33.1602ZM31.8769 36.5858L30.7426 32.75L30.7345 32.7524L31.8769 36.5858ZM35.8419 24.8207L33.0339 21.972L32.3108 22.6848L32.0152 23.6561L35.8419 24.8207ZM32.8631 34.6083L29.0364 33.4436L26.8734 40.5507L33.9974 38.4441L32.8631 34.6083ZM42.7927 31.672L43.927 35.5078L44.8874 35.2237L45.6007 34.5207L42.7927 31.672ZM61.7611 12.9749L64.569 15.8236L64.5693 15.8234L61.7611 12.9749ZM61.7611 6.12369L58.9528 8.97217L58.9531 8.97242L61.7611 6.12369ZM54.8103 6.12369L57.6182 8.97242L54.8103 6.12369ZM31.6415 32.6199C32.4536 32.6199 33.2595 32.9335 33.8686 33.5333L28.2557 39.2337C29.1768 40.1406 30.401 40.6199 31.6415 40.6199V32.6199ZM33.8701 33.5348C34.7085 34.3612 35.0335 35.5964 34.6833 36.746L27.0304 34.4151C26.5069 36.1338 26.9895 37.9856 28.2542 39.2322L33.8701 33.5348ZM34.6836 36.7452L38.1589 25.3265L30.5055 22.9972L27.0302 34.4159L34.6836 36.7452ZM38.1588 25.327C38.0032 25.838 37.7227 26.2998 37.3455 26.6716L31.7295 20.9742C31.1606 21.535 30.7392 22.2296 30.5056 22.9968L38.1588 25.327ZM37.3455 26.6716L56.46 7.83055L50.844 2.13309L31.7295 20.9742L37.3455 26.6716ZM56.46 7.83055C56.9434 7.35406 57.5779 7.08984 58.2856 7.08984V-0.910156C55.4928 -0.910156 52.8361 0.169514 50.844 2.13309L56.46 7.83055ZM58.2856 7.08984C58.9936 7.08984 59.628 7.35406 60.1114 7.83055L65.7273 2.13309C63.7353 0.169514 61.0787 -0.910156 58.2856 -0.910156V7.08984ZM60.1116 7.83073C60.593 8.3052 60.8389 8.9037 60.8389 9.5493H68.8389C68.8389 6.74425 67.7215 4.09849 65.7271 2.1329L60.1116 7.83073ZM60.8389 9.5493C60.8389 10.195 60.593 10.7934 60.1114 11.2682L65.7273 16.9657C67.7215 15.0001 68.8389 12.3546 68.8389 9.5493H60.8389ZM60.1114 11.2682L40.9972 30.1092L46.6132 35.8066L65.7273 16.9657L60.1114 11.2682ZM40.9972 30.1091C41.3719 29.7398 41.8305 29.4707 42.331 29.3232L44.5916 36.9972C45.3519 36.7732 46.0467 36.3649 46.6131 35.8066L40.9972 30.1091ZM42.327 29.3244L30.7426 32.75L33.0112 40.4216L44.5956 36.996L42.327 29.3244ZM30.7345 32.7524C31.0412 32.661 31.3475 32.6199 31.6415 32.6199V40.6199C32.0927 40.6199 32.5576 40.5568 33.0192 40.4192L30.7345 32.7524ZM32.0152 23.6561L29.0364 33.4436L36.6898 35.7729L39.6686 25.9854L32.0152 23.6561ZM33.9974 38.4441L43.927 35.5078L41.6584 27.8362L31.7288 30.7725L33.9974 38.4441ZM45.6007 34.5207L64.569 15.8236L58.9531 10.1262L39.9847 28.8232L45.6007 34.5207ZM64.5693 15.8234C66.2535 14.163 67.2006 11.9232 67.2006 9.5493H59.2006C59.2006 9.76337 59.1252 9.95652 58.9528 10.1264L64.5693 15.8234ZM67.2006 9.5493C67.2006 7.17559 66.2536 4.93543 64.569 3.27496L58.9531 8.97242C59.125 9.14191 59.2006 9.33502 59.2006 9.5493H67.2006ZM64.5693 3.27521C62.8863 1.616 60.6407 0.704707 58.2856 0.704707V8.70471C58.5564 8.70471 58.7793 8.80109 58.9528 8.97217L64.5693 3.27521ZM58.2856 0.704707C55.9303 0.704707 53.6849 1.61641 52.0023 3.27496L57.6182 8.97242C57.7921 8.801 58.0153 8.70471 58.2856 8.70471V0.704707ZM52.0023 3.27496L33.0339 21.972L38.6499 27.6695L57.6182 8.97242L52.0023 3.27496Z" fill="#817EF0" mask="url(#path-5-inside-3_18001_74)"/>
<mask id="path-7-inside-4_18001_74" fill="white">
<path d="M38.0116 29.1673C37.0676 29.1673 36.1238 28.8132 35.4051 28.1049C33.968 26.6882 33.968 24.3831 35.4051 22.9664C35.7249 22.6512 36.2436 22.6512 36.5635 22.9664C36.8835 23.2818 36.8835 23.7929 36.5635 24.1083C35.765 24.8954 35.765 26.1759 36.5635 26.963C37.362 27.7501 38.6612 27.7501 39.4597 26.963C39.7798 26.6478 40.2984 26.648 40.6182 26.963C40.9381 27.2784 40.9381 27.7897 40.6182 28.1049C39.8996 28.8132 38.9556 29.1673 38.0116 29.1673Z"/>
</mask>
<path d="M38.0116 29.1673C37.0676 29.1673 36.1238 28.8132 35.4051 28.1049C33.968 26.6882 33.968 24.3831 35.4051 22.9664C35.7249 22.6512 36.2436 22.6512 36.5635 22.9664C36.8835 23.2818 36.8835 23.7929 36.5635 24.1083C35.765 24.8954 35.765 26.1759 36.5635 26.963C37.362 27.7501 38.6612 27.7501 39.4597 26.963C39.7798 26.6478 40.2984 26.648 40.6182 26.963C40.9381 27.2784 40.9381 27.7897 40.6182 28.1049C39.8996 28.8132 38.9556 29.1673 38.0116 29.1673Z" fill="#817EF0"/>
<path d="M35.4051 28.1049L32.597 30.9535L32.5974 30.9539L35.4051 28.1049ZM35.4051 22.9664L32.5971 20.1177L32.597 20.1178L35.4051 22.9664ZM36.5635 22.9664L39.3715 20.1177L39.3708 20.1169L36.5635 22.9664ZM36.5635 24.1083L33.7556 21.2595L36.5635 24.1083ZM39.4597 26.963L36.6532 24.1129L36.6517 24.1143L39.4597 26.963ZM40.6182 26.963L43.4261 24.1143L43.4254 24.1136L40.6182 26.963ZM40.6182 28.1049L37.8109 25.2554L37.8102 25.2562L40.6182 28.1049ZM38.0116 25.1673C38.0384 25.1673 38.0702 25.1721 38.1062 25.1865C38.145 25.202 38.183 25.2265 38.2128 25.2558L32.5974 30.9539C34.1027 32.4374 36.0717 33.1673 38.0116 33.1673V25.1673ZM38.2132 25.2563C38.3653 25.4062 38.3653 25.6651 38.2132 25.815L32.597 20.1178C29.5707 23.1011 29.5707 27.9701 32.597 30.9535L38.2132 25.2563ZM38.2131 25.8151C36.9752 27.0353 34.9931 27.0343 33.7563 25.8158L39.3708 20.1169C37.4941 18.2681 34.4746 18.267 32.5971 20.1177L38.2131 25.8151ZM33.7556 25.8151C32.4862 24.5639 32.4862 22.5108 33.7556 21.2595L39.3715 26.957C41.2808 25.075 41.2808 21.9997 39.3715 20.1177L33.7556 25.8151ZM33.7556 21.2595C31.3677 23.6132 31.3677 27.458 33.7556 29.8117L39.3715 24.1143C40.1624 24.8938 40.1624 26.1775 39.3715 26.957L33.7556 21.2595ZM33.7556 29.8117C36.1114 32.1339 39.9119 32.1339 42.2677 29.8117L36.6517 24.1143C37.4105 23.3663 38.6127 23.3663 39.3715 24.1143L33.7556 29.8117ZM42.2662 29.8132C41.0293 31.0312 39.0481 31.0314 37.8109 29.8125L43.4254 24.1136C41.5486 22.2646 38.5304 22.2644 36.6532 24.1129L42.2662 29.8132ZM37.8102 29.8117C36.5412 28.5609 36.5401 26.5074 37.8109 25.2554L43.4254 30.9543C45.3361 29.0719 45.3351 25.9959 43.4261 24.1143L37.8102 29.8117ZM37.8102 25.2562C37.8403 25.2265 37.8784 25.2019 37.9172 25.1865C37.9531 25.1721 37.9849 25.1673 38.0116 25.1673V33.1673C39.9512 33.1673 41.9207 32.4375 43.4261 30.9536L37.8102 25.2562Z" fill="#817EF0" mask="url(#path-7-inside-4_18001_74)"/>
<mask id="path-9-inside-5_18001_74" fill="white">
<path d="M42.0663 33.1657C41.0817 33.1657 40.156 32.7876 39.4598 32.1015C38.7635 31.4153 38.3801 30.5027 38.3801 29.5322C38.3801 28.5617 38.7637 27.6491 39.4598 26.963L49.6546 16.9142C49.9742 16.5989 50.4932 16.5989 50.8128 16.9142C51.1328 17.2295 51.1328 17.7408 50.8128 18.056L40.6182 28.1048C40.2314 28.4861 40.0183 28.993 40.0183 29.5322C40.0183 30.0712 40.2312 30.5783 40.6182 30.9594C41.005 31.3407 41.5193 31.5508 42.0661 31.5508C42.6132 31.5508 43.1274 31.3409 43.5142 30.9594C43.834 30.6442 44.3529 30.6442 44.6727 30.9594C44.9926 31.2748 44.9926 31.7859 44.6728 32.1013C43.9767 32.7876 43.0509 33.1657 42.0663 33.1657Z"/>
</mask>
<path d="M42.0663 33.1657C41.0817 33.1657 40.156 32.7876 39.4598 32.1015C38.7635 31.4153 38.3801 30.5027 38.3801 29.5322C38.3801 28.5617 38.7637 27.6491 39.4598 26.963L49.6546 16.9142C49.9742 16.5989 50.4932 16.5989 50.8128 16.9142C51.1328 17.2295 51.1328 17.7408 50.8128 18.056L40.6182 28.1048C40.2314 28.4861 40.0183 28.993 40.0183 29.5322C40.0183 30.0712 40.2312 30.5783 40.6182 30.9594C41.005 31.3407 41.5193 31.5508 42.0661 31.5508C42.6132 31.5508 43.1274 31.3409 43.5142 30.9594C43.834 30.6442 44.3529 30.6442 44.6727 30.9594C44.9926 31.2748 44.9926 31.7859 44.6728 32.1013C43.9767 32.7876 43.0509 33.1657 42.0663 33.1657Z" fill="#817EF0"/>
<path d="M39.4598 26.963L36.6518 24.1142L36.6518 24.1142L39.4598 26.963ZM49.6546 16.9142L52.4625 19.7629L52.4633 19.7622L49.6546 16.9142ZM50.8128 16.9142L48.0041 19.7622L48.0049 19.7629L50.8128 16.9142ZM50.8128 18.056L48.0056 15.2066L48.0049 15.2073L50.8128 18.056ZM40.6182 28.1048L37.8102 25.2561H37.8102L40.6182 28.1048ZM40.6182 30.9594L43.4262 28.1107L43.425 28.1095L40.6182 30.9594ZM43.5142 30.9594L40.7062 28.1107L40.7056 28.1113L43.5142 30.9594ZM44.6728 32.1013L47.4811 34.9497L47.4815 34.9493L44.6728 32.1013ZM42.0663 29.1657C42.0884 29.1657 42.1247 29.1704 42.167 29.1877C42.2094 29.205 42.2439 29.2293 42.2674 29.2524L36.6521 34.9505C38.1025 36.3798 40.039 37.1657 42.0663 37.1657V29.1657ZM42.2674 29.2524C42.2914 29.276 42.3225 29.3168 42.3465 29.374C42.3706 29.4313 42.3801 29.4875 42.3801 29.5322H34.3801C34.3801 31.582 35.1989 33.5184 36.6521 34.9505L42.2674 29.2524ZM42.3801 29.5322C42.3801 29.5772 42.3706 29.6334 42.3465 29.6906C42.3226 29.7476 42.2916 29.7882 42.2677 29.8117L36.6518 24.1142C35.1993 25.5459 34.3801 27.482 34.3801 29.5322H42.3801ZM42.2677 29.8117L52.4625 19.7629L46.8466 14.0654L36.6518 24.1142L42.2677 29.8117ZM52.4633 19.7622C51.2254 20.9829 49.242 20.9829 48.0041 19.7622L53.6216 14.0661C51.7444 12.2149 48.723 12.2149 46.8459 14.0661L52.4633 19.7622ZM48.0049 19.7629C46.7359 18.512 46.7348 16.4585 48.0056 15.2066L53.6201 20.9055C55.5308 19.0231 55.5297 15.947 53.6208 14.0654L48.0049 19.7629ZM48.0049 15.2073L37.8102 25.2561L43.4262 30.9536L53.6208 20.9047L48.0049 15.2073ZM37.8102 25.2561C36.6675 26.3825 36.0183 27.9127 36.0183 29.5322H44.0183C44.0183 30.0733 43.7953 30.5897 43.4262 30.9536L37.8102 25.2561ZM36.0183 29.5322C36.0183 31.1505 36.6666 32.6819 37.8114 33.8093L43.425 28.1095C43.7958 28.4748 44.0183 28.992 44.0183 29.5322H36.0183ZM37.8102 33.8082C38.9509 34.9325 40.476 35.5508 42.0661 35.5508V27.5508C42.5625 27.5508 43.0591 27.7489 43.4262 28.1107L37.8102 33.8082ZM42.0661 35.5508C43.6555 35.5508 45.1813 34.9333 46.3228 33.8076L40.7056 28.1113C41.0736 27.7484 41.5708 27.5508 42.0661 27.5508V35.5508ZM46.3222 33.8082C45.0847 35.028 43.1022 35.028 41.8647 33.8082L47.4806 28.1107C45.6035 26.2604 42.5833 26.2604 40.7062 28.1107L46.3222 33.8082ZM41.8647 33.8082C40.5954 32.557 40.5954 30.5045 41.8641 29.2533L47.4815 34.9493C49.3899 33.0673 49.3898 29.9926 47.4806 28.1107L41.8647 33.8082ZM41.8645 29.2529C41.8883 29.2294 41.9231 29.205 41.9656 29.1877C42.008 29.1704 42.0443 29.1657 42.0663 29.1657V37.1657C44.0934 37.1657 46.0305 36.3799 47.4811 34.9497L41.8645 29.2529Z" fill="#817EF0" mask="url(#path-9-inside-5_18001_74)"/>
<mask id="path-11-inside-6_18001_74" fill="white">
<path d="M60.0233 16.6372C59.8137 16.6372 59.6039 16.5584 59.4441 16.4008L51.3349 8.40758C51.0149 8.0922 51.0149 7.58093 51.3349 7.26571C51.6545 6.95049 52.1735 6.95049 52.4932 7.26571L60.6024 15.259C60.9224 15.5743 60.9224 16.0856 60.6024 16.4008C60.4427 16.5584 60.2328 16.6372 60.0233 16.6372Z"/>
</mask>
<path d="M60.0233 16.6372C59.8137 16.6372 59.6039 16.5584 59.4441 16.4008L51.3349 8.40758C51.0149 8.0922 51.0149 7.58093 51.3349 7.26571C51.6545 6.95049 52.1735 6.95049 52.4932 7.26571L60.6024 15.259C60.9224 15.5743 60.9224 16.0856 60.6024 16.4008C60.4427 16.5584 60.2328 16.6372 60.0233 16.6372Z" fill="#817EF0"/>
<path d="M59.4441 16.4008L62.2536 13.5535L62.2521 13.5521L59.4441 16.4008ZM51.3349 8.40758L54.1429 5.55886L54.1429 5.55886L51.3349 8.40758ZM51.3349 7.26571L54.1421 10.1152L54.1436 10.1137L51.3349 7.26571ZM52.4932 7.26571L49.6844 10.1137L49.6852 10.1144L52.4932 7.26571ZM60.6024 15.259L57.7944 18.1077H57.7944L60.6024 15.259ZM60.6024 16.4008L57.7951 13.5514L57.793 13.5535L60.6024 16.4008ZM60.0233 12.6372C60.8113 12.6372 61.6272 12.9355 62.2536 13.5535L56.6347 19.2481C57.5806 20.1814 58.8161 20.6372 60.0233 20.6372V12.6372ZM62.2521 13.5521L54.1429 5.55886L48.5269 11.2563L56.6361 19.2496L62.2521 13.5521ZM54.1429 5.55886C55.4119 6.8097 55.4129 8.8632 54.1421 10.1152L48.5276 4.41627C46.6169 6.29867 46.618 9.3747 48.5269 11.2563L54.1429 5.55886ZM54.1436 10.1137C52.9057 11.3345 50.9223 11.3345 49.6844 10.1137L55.3019 4.4177C53.4248 2.56649 50.4033 2.56649 48.5262 4.4177L54.1436 10.1137ZM49.6852 10.1144L57.7944 18.1077L63.4104 12.4102L55.3011 4.41699L49.6852 10.1144ZM57.7944 18.1077C56.5254 16.8568 56.5244 14.8033 57.7952 13.5514L63.4097 19.2503C65.3204 17.3679 65.3193 14.2918 63.4104 12.4102L57.7944 18.1077ZM57.793 13.5535C58.4194 12.9355 59.2352 12.6372 60.0233 12.6372V20.6372C61.2304 20.6372 62.466 20.1814 63.4118 19.2481L57.793 13.5535Z" fill="#817EF0" mask="url(#path-11-inside-6_18001_74)"/>
<mask id="path-13-inside-7_18001_74" fill="white">
<path d="M62.522 53.0124H49.4156C46.7055 53.0124 44.5007 50.8391 44.5007 48.1678C44.5007 45.4965 46.7055 43.3232 49.4156 43.3232H67.4369C69.2436 43.3232 70.7135 41.8744 70.7135 40.0935V39.85C70.7135 38.0691 69.2436 36.6202 67.4369 36.6202H31.6414C31.1891 36.6202 30.8223 36.2587 30.8223 35.8128C30.8223 35.3669 31.1891 35.0054 31.6414 35.0054H67.4369C70.147 35.0054 72.3518 37.1787 72.3518 39.85V40.0935C72.3518 42.7648 70.147 44.9381 67.4369 44.9381H49.4156C47.6089 44.9381 46.139 46.3869 46.139 48.1678C46.139 49.9487 47.6089 51.3975 49.4156 51.3975H62.522C62.9745 51.3975 63.3412 51.7589 63.3412 52.205C63.3412 52.651 62.9745 53.0124 62.522 53.0124Z"/>
</mask>
<path d="M62.522 53.0124H49.4156C46.7055 53.0124 44.5007 50.8391 44.5007 48.1678C44.5007 45.4965 46.7055 43.3232 49.4156 43.3232H67.4369C69.2436 43.3232 70.7135 41.8744 70.7135 40.0935V39.85C70.7135 38.0691 69.2436 36.6202 67.4369 36.6202H31.6414C31.1891 36.6202 30.8223 36.2587 30.8223 35.8128C30.8223 35.3669 31.1891 35.0054 31.6414 35.0054H67.4369C70.147 35.0054 72.3518 37.1787 72.3518 39.85V40.0935C72.3518 42.7648 70.147 44.9381 67.4369 44.9381H49.4156C47.6089 44.9381 46.139 46.3869 46.139 48.1678C46.139 49.9487 47.6089 51.3975 49.4156 51.3975H62.522C62.9745 51.3975 63.3412 51.7589 63.3412 52.205C63.3412 52.651 62.9745 53.0124 62.522 53.0124Z" fill="#817EF0"/>
<path d="M62.522 49.0124H49.4156V57.0124H62.522V49.0124ZM49.4156 49.0124C48.8602 49.0124 48.5007 48.5758 48.5007 48.1678H40.5007C40.5007 53.1024 44.5509 57.0124 49.4156 57.0124V49.0124ZM48.5007 48.1678C48.5007 47.7598 48.8602 47.3232 49.4156 47.3232V39.3232C44.5509 39.3232 40.5007 43.2332 40.5007 48.1678H48.5007ZM49.4156 47.3232H67.4369V39.3232H49.4156V47.3232ZM67.4369 47.3232C71.3982 47.3232 74.7135 44.1376 74.7135 40.0935H66.7135C66.7135 39.6111 67.089 39.3232 67.4369 39.3232V47.3232ZM74.7135 40.0935V39.85H66.7135V40.0935H74.7135ZM74.7135 39.85C74.7135 35.8058 71.3982 32.6202 67.4369 32.6202V40.6202C67.089 40.6202 66.7135 40.3324 66.7135 39.85H74.7135ZM67.4369 32.6202H31.6414V40.6202H67.4369V32.6202ZM31.6414 32.6202C33.3437 32.6202 34.8223 33.9954 34.8223 35.8128H26.8223C26.8223 38.5219 29.0345 40.6202 31.6414 40.6202V32.6202ZM34.8223 35.8128C34.8223 37.6302 33.3437 39.0054 31.6414 39.0054V31.0054C29.0345 31.0054 26.8223 33.1037 26.8223 35.8128H34.8223ZM31.6414 39.0054H67.4369V31.0054H31.6414V39.0054ZM67.4369 39.0054C67.9924 39.0054 68.3518 39.4419 68.3518 39.85H76.3518C76.3518 34.9154 72.3016 31.0054 67.4369 31.0054V39.0054ZM68.3518 39.85V40.0935H76.3518V39.85H68.3518ZM68.3518 40.0935C68.3518 40.5015 67.9924 40.9381 67.4369 40.9381V48.9381C72.3016 48.9381 76.3518 45.0281 76.3518 40.0935H68.3518ZM67.4369 40.9381H49.4156V48.9381H67.4369V40.9381ZM49.4156 40.9381C45.4543 40.9381 42.139 44.1237 42.139 48.1678H50.139C50.139 48.6502 49.7635 48.9381 49.4156 48.9381V40.9381ZM42.139 48.1678C42.139 52.2119 45.4543 55.3975 49.4156 55.3975V47.3975C49.7635 47.3975 50.139 47.6854 50.139 48.1678H42.139ZM49.4156 55.3975H62.522V47.3975H49.4156V55.3975ZM62.522 55.3975C60.8199 55.3975 59.3412 54.0222 59.3412 52.205H67.3412C67.3412 49.4957 65.1291 47.3975 62.522 47.3975V55.3975ZM59.3412 52.205C59.3412 50.3877 60.8199 49.0124 62.522 49.0124V57.0124C65.1291 57.0124 67.3412 54.9143 67.3412 52.205H59.3412Z" fill="#817EF0" mask="url(#path-13-inside-7_18001_74)"/>
<mask id="path-15-inside-8_18001_74" fill="white">
<path d="M31.3936 53.8195H6.81915C6.36681 53.8195 6 53.458 6 53.012C6 52.566 6.36681 52.2046 6.81915 52.2046H31.3936C31.8459 52.2046 32.2128 52.566 32.2128 53.012C32.2128 53.458 31.8459 53.8195 31.3936 53.8195Z"/>
</mask>
<path d="M31.3936 53.8195H6.81915C6.36681 53.8195 6 53.458 6 53.012C6 52.566 6.36681 52.2046 6.81915 52.2046H31.3936C31.8459 52.2046 32.2128 52.566 32.2128 53.012C32.2128 53.458 31.8459 53.8195 31.3936 53.8195Z" fill="#817EF0"/>
<path d="M31.3936 49.8195H6.81915V57.8195H31.3936V49.8195ZM6.81915 49.8195C8.5209 49.8195 10 51.1943 10 53.012H2C2 55.7218 4.21273 57.8195 6.81915 57.8195V49.8195ZM10 53.012C10 54.8298 8.5209 56.2046 6.81915 56.2046V48.2046C4.21273 48.2046 2 50.3022 2 53.012H10ZM6.81915 56.2046H31.3936V48.2046H6.81915V56.2046ZM31.3936 56.2046C29.6919 56.2046 28.2128 54.8298 28.2128 53.012H36.2128C36.2128 50.3022 34 48.2046 31.3936 48.2046V56.2046ZM28.2128 53.012C28.2128 51.1943 29.6919 49.8195 31.3936 49.8195V57.8195C34 57.8195 36.2128 55.7218 36.2128 53.012H28.2128Z" fill="#FBFBFB" mask="url(#path-15-inside-8_18001_74)"/>
<mask id="path-17-inside-9_18001_74" fill="white">
<path d="M31.3936 48.9752H6.81915C6.36681 48.9752 6 48.6138 6 48.1678C6 47.7218 6.36681 47.3604 6.81915 47.3604H31.3936C31.8459 47.3604 32.2128 47.7218 32.2128 48.1678C32.2128 48.6138 31.8459 48.9752 31.3936 48.9752Z"/>
</mask>
<path d="M31.3936 48.9752H6.81915C6.36681 48.9752 6 48.6138 6 48.1678C6 47.7218 6.36681 47.3604 6.81915 47.3604H31.3936C31.8459 47.3604 32.2128 47.7218 32.2128 48.1678C32.2128 48.6138 31.8459 48.9752 31.3936 48.9752Z" fill="#817EF0"/>
<path d="M31.3936 44.9752H6.81915V52.9752H31.3936V44.9752ZM6.81915 44.9752C8.5209 44.9752 10 46.35 10 48.1678H2C2 50.8776 4.21273 52.9752 6.81915 52.9752V44.9752ZM10 48.1678C10 49.9855 8.5209 51.3604 6.81915 51.3604V43.3604C4.21273 43.3604 2 45.458 2 48.1678H10ZM6.81915 51.3604H31.3936V43.3604H6.81915V51.3604ZM31.3936 51.3604C29.6919 51.3604 28.2128 49.9855 28.2128 48.1678H36.2128C36.2128 45.458 34 43.3604 31.3936 43.3604V51.3604ZM28.2128 48.1678C28.2128 46.35 29.6919 44.9752 31.3936 44.9752V52.9752C34 52.9752 36.2128 50.8776 36.2128 48.1678H28.2128Z" fill="#FBFBFB" mask="url(#path-17-inside-9_18001_74)"/>
<mask id="path-19-inside-10_18001_74" fill="white">
<path d="M31.3936 44.1305H6.81915C6.36681 44.1305 6 43.7691 6 43.3231C6 42.8772 6.36681 42.5156 6.81915 42.5156H31.3936C31.8459 42.5156 32.2128 42.8772 32.2128 43.3231C32.2128 43.7691 31.8459 44.1305 31.3936 44.1305Z"/>
</mask>
<path d="M31.3936 44.1305H6.81915C6.36681 44.1305 6 43.7691 6 43.3231C6 42.8772 6.36681 42.5156 6.81915 42.5156H31.3936C31.8459 42.5156 32.2128 42.8772 32.2128 43.3231C32.2128 43.7691 31.8459 44.1305 31.3936 44.1305Z" fill="#817EF0"/>
<path d="M31.3936 40.1305H6.81915V48.1305H31.3936V40.1305ZM6.81915 40.1305C8.52092 40.1305 10 41.5053 10 43.3231H2C2 46.0329 4.21271 48.1305 6.81915 48.1305V40.1305ZM10 43.3231C10 45.1405 8.52143 46.5156 6.81915 46.5156V38.5156C4.2122 38.5156 2 40.6139 2 43.3231H10ZM6.81915 46.5156H31.3936V38.5156H6.81915V46.5156ZM31.3936 46.5156C29.6913 46.5156 28.2128 45.1405 28.2128 43.3231H36.2128C36.2128 40.6139 34.0006 38.5156 31.3936 38.5156V46.5156ZM28.2128 43.3231C28.2128 41.5053 29.6918 40.1305 31.3936 40.1305V48.1305C34.0001 48.1305 36.2128 46.0329 36.2128 43.3231H28.2128Z" fill="#FBFBFB" mask="url(#path-19-inside-10_18001_74)"/>
<mask id="path-21-inside-11_18001_74" fill="white">
<path d="M53.5095 80.4647H35.4882C35.0359 80.4647 34.6691 80.1033 34.6691 79.6573V69.9681C34.6691 69.5221 35.0359 69.1606 35.4882 69.1606H53.5095C53.962 69.1606 54.3287 69.5221 54.3287 69.9681V79.6573C54.3287 80.1033 53.962 80.4647 53.5095 80.4647ZM36.3074 78.8498H52.6904V70.7755H36.3074V78.8498Z"/>
</mask>
<path d="M53.5095 80.4647H35.4882C35.0359 80.4647 34.6691 80.1033 34.6691 79.6573V69.9681C34.6691 69.5221 35.0359 69.1606 35.4882 69.1606H53.5095C53.962 69.1606 54.3287 69.5221 54.3287 69.9681V79.6573C54.3287 80.1033 53.962 80.4647 53.5095 80.4647ZM36.3074 78.8498H52.6904V70.7755H36.3074V78.8498Z" fill="#817EF0"/>
<path d="M36.3074 78.8498H32.3074V82.8498H36.3074V78.8498ZM52.6904 78.8498V82.8498H56.6904V78.8498H52.6904ZM52.6904 70.7755H56.6904V66.7755H52.6904V70.7755ZM36.3074 70.7755V66.7755H32.3074V70.7755H36.3074ZM53.5095 76.4647H35.4882V84.4647H53.5095V76.4647ZM35.4882 76.4647C37.19 76.4647 38.6691 77.8395 38.6691 79.6573H30.6691C30.6691 82.3671 32.8818 84.4647 35.4882 84.4647V76.4647ZM38.6691 79.6573V69.9681H30.6691V79.6573H38.6691ZM38.6691 69.9681C38.6691 71.7858 37.19 73.1606 35.4882 73.1606V65.1606C32.8818 65.1606 30.6691 67.2583 30.6691 69.9681H38.6691ZM35.4882 73.1606H53.5095V65.1606H35.4882V73.1606ZM53.5095 73.1606C51.8074 73.1606 50.3287 71.7853 50.3287 69.9681H58.3287C58.3287 67.2588 56.1166 65.1606 53.5095 65.1606V73.1606ZM50.3287 69.9681V79.6573H58.3287V69.9681H50.3287ZM50.3287 79.6573C50.3287 77.84 51.8074 76.4647 53.5095 76.4647V84.4647C56.1166 84.4647 58.3287 82.3666 58.3287 79.6573H50.3287ZM36.3074 82.8498H52.6904V74.8498H36.3074V82.8498ZM56.6904 78.8498V70.7755H48.6904V78.8498H56.6904ZM52.6904 66.7755H36.3074V74.7755H52.6904V66.7755ZM32.3074 70.7755V78.8498H40.3074V70.7755H32.3074Z" fill="#FBFBFB" mask="url(#path-21-inside-11_18001_74)"/>
<mask id="path-23-inside-12_18001_74" fill="white">
<path d="M49.4151 80.4647H39.5853C39.133 80.4647 38.7662 80.1033 38.7662 79.6573V69.9681C38.7662 69.5221 39.133 69.1606 39.5853 69.1606H49.4151C49.8676 69.1606 50.2342 69.5221 50.2342 69.9681V79.6573C50.2342 80.1033 49.8676 80.4647 49.4151 80.4647ZM40.4045 78.8498H48.5959V70.7755H40.4045V78.8498Z"/>
</mask>
<path d="M49.4151 80.4647H39.5853C39.133 80.4647 38.7662 80.1033 38.7662 79.6573V69.9681C38.7662 69.5221 39.133 69.1606 39.5853 69.1606H49.4151C49.8676 69.1606 50.2342 69.5221 50.2342 69.9681V79.6573C50.2342 80.1033 49.8676 80.4647 49.4151 80.4647ZM40.4045 78.8498H48.5959V70.7755H40.4045V78.8498Z" fill="#817EF0"/>
<path d="M40.4045 78.8498H36.4045V82.8498H40.4045V78.8498ZM48.5959 78.8498V82.8498H52.5959V78.8498H48.5959ZM48.5959 70.7755H52.5959V66.7755H48.5959V70.7755ZM40.4045 70.7755V66.7755H36.4045V70.7755H40.4045ZM49.4151 76.4647H39.5853V84.4647H49.4151V76.4647ZM39.5853 76.4647C41.2871 76.4647 42.7662 77.8395 42.7662 79.6573H34.7662C34.7662 82.3671 36.9789 84.4647 39.5853 84.4647V76.4647ZM42.7662 79.6573V69.9681H34.7662V79.6573H42.7662ZM42.7662 69.9681C42.7662 71.7858 41.2871 73.1606 39.5853 73.1606V65.1606C36.9789 65.1606 34.7662 67.2583 34.7662 69.9681H42.7662ZM39.5853 73.1606H49.4151V65.1606H39.5853V73.1606ZM49.4151 73.1606C47.713 73.1606 46.2342 71.7853 46.2342 69.9681H54.2342C54.2342 67.2588 52.0222 65.1606 49.4151 65.1606V73.1606ZM46.2342 69.9681V79.6573H54.2342V69.9681H46.2342ZM46.2342 79.6573C46.2342 77.84 47.713 76.4647 49.4151 76.4647V84.4647C52.0222 84.4647 54.2342 82.3666 54.2342 79.6573H46.2342ZM40.4045 82.8498H48.5959V74.8498H40.4045V82.8498ZM52.5959 78.8498V70.7755H44.5959V78.8498H52.5959ZM48.5959 66.7755H40.4045V74.7755H48.5959V66.7755ZM36.4045 70.7755V78.8498H44.4045V70.7755H36.4045Z" fill="#FBFBFB" mask="url(#path-23-inside-12_18001_74)"/>
<mask id="path-25-inside-13_18001_74" fill="white">
<path d="M55.969 83.6947H33.0329C31.6778 83.6947 30.5754 82.608 30.5754 81.2724C30.5754 79.9367 31.6778 78.8501 33.0329 78.8501H55.969C57.3241 78.8501 58.4265 79.9367 58.4265 81.2724C58.4265 82.608 57.3241 83.6947 55.969 83.6947ZM33.0329 80.465C32.5812 80.465 32.2137 80.8272 32.2137 81.2724C32.2137 81.7176 32.5812 82.0798 33.0329 82.0798H55.969C56.4207 82.0798 56.7882 81.7176 56.7882 81.2724C56.7882 80.8272 56.4207 80.465 55.969 80.465H33.0329Z"/>
</mask>
<path d="M55.969 83.6947H33.0329C31.6778 83.6947 30.5754 82.608 30.5754 81.2724C30.5754 79.9367 31.6778 78.8501 33.0329 78.8501H55.969C57.3241 78.8501 58.4265 79.9367 58.4265 81.2724C58.4265 82.608 57.3241 83.6947 55.969 83.6947ZM33.0329 80.465C32.5812 80.465 32.2137 80.8272 32.2137 81.2724C32.2137 81.7176 32.5812 82.0798 33.0329 82.0798H55.969C56.4207 82.0798 56.7882 81.7176 56.7882 81.2724C56.7882 80.8272 56.4207 80.465 55.969 80.465H33.0329Z" fill="#817EF0"/>
<path d="M55.969 79.6947H33.0329V87.6947H55.969V79.6947ZM33.0329 79.6947C33.8324 79.6947 34.5754 80.3448 34.5754 81.2724H26.5754C26.5754 84.8713 29.5232 87.6947 33.0329 87.6947V79.6947ZM34.5754 81.2724C34.5754 82.2 33.8324 82.8501 33.0329 82.8501V74.8501C29.5232 74.8501 26.5754 77.6735 26.5754 81.2724H34.5754ZM33.0329 82.8501H55.969V74.8501H33.0329V82.8501ZM55.969 82.8501C55.1695 82.8501 54.4265 82.2 54.4265 81.2724H62.4265C62.4265 77.6735 59.4787 74.8501 55.969 74.8501V82.8501ZM54.4265 81.2724C54.4265 80.3448 55.1695 79.6947 55.969 79.6947V87.6947C59.4787 87.6947 62.4265 84.8713 62.4265 81.2724H54.4265ZM33.0329 76.465C30.4266 76.465 28.2137 78.5639 28.2137 81.2724H36.2137C36.2137 83.0904 34.7358 84.465 33.0329 84.465V76.465ZM28.2137 81.2724C28.2137 83.9809 30.4266 86.0798 33.0329 86.0798V78.0798C34.7358 78.0798 36.2137 79.4543 36.2137 81.2724H28.2137ZM33.0329 86.0798H55.969V78.0798H33.0329V86.0798ZM55.969 86.0798C58.5753 86.0798 60.7882 83.9809 60.7882 81.2724H52.7882C52.7882 79.4543 54.2661 78.0798 55.969 78.0798V86.0798ZM60.7882 81.2724C60.7882 78.5639 58.5753 76.465 55.969 76.465V84.465C54.2661 84.465 52.7882 83.0904 52.7882 81.2724H60.7882ZM55.969 76.465H33.0329V84.465H55.969V76.465Z" fill="#FBFBFB" mask="url(#path-25-inside-13_18001_74)"/>
</svg>
