<svg width="116" height="50" viewBox="0 0 116 50" fill="none" xmlns="http://www.w3.org/2000/svg">
<g clip-path="url(#clip0_18001_254)">
<path fill-rule="evenodd" clip-rule="evenodd" d="M71.4723 39.3812C64.8436 44.2671 55.2357 46.8739 46.9635 46.8739C35.3645 46.8739 24.9224 42.5838 17.0225 35.4486C16.4019 34.8876 16.958 34.1229 17.7028 34.5598C26.2282 39.5202 36.7696 42.5044 47.6586 42.5044C55.0023 42.5044 63.0809 40.985 70.509 37.832C71.6312 37.3553 72.5697 38.5669 71.4723 39.3812Z" fill="white"/>
<path fill-rule="evenodd" clip-rule="evenodd" d="M74.2282 36.2282C73.384 35.1458 68.6273 35.7168 66.4922 35.97C65.8417 36.0495 65.7424 35.4834 66.3283 35.0763C70.1169 32.4099 76.3334 33.1795 77.0584 34.0733C77.7833 34.972 76.8697 41.2035 73.3096 44.1777C72.7634 44.6345 72.242 44.3912 72.4853 43.7855C73.2847 41.7894 75.0772 37.3156 74.2282 36.2282Z" fill="white"/>
<path fill-rule="evenodd" clip-rule="evenodd" d="M66.6428 16.2538V13.6619C66.6428 13.2696 66.9407 13.0065 67.2982 13.0065H78.9022C79.2746 13.0065 79.5725 13.2746 79.5725 13.6619V15.8814C79.5675 16.2538 79.2547 16.7404 78.6986 17.51L72.6856 26.0951C74.92 26.0405 77.2785 26.3731 79.3044 27.5152C79.7612 27.7733 79.8853 28.1507 79.9201 28.5231V31.2888C79.9201 31.6662 79.503 32.1081 79.066 31.8797C75.496 30.0077 70.7541 29.8042 66.8066 31.8995C66.4044 32.118 65.9824 31.6811 65.9824 31.3037V28.677C65.9824 28.255 65.9874 27.535 66.4094 26.8945L73.3758 16.9042H67.3131C66.9407 16.9042 66.6428 16.6411 66.6428 16.2538Z" fill="white"/>
<path fill-rule="evenodd" clip-rule="evenodd" d="M24.3133 32.4259H20.783C20.4453 32.4011 20.1772 32.1478 20.1524 31.8251V13.7066C20.1524 13.3441 20.4553 13.0562 20.8326 13.0562H24.1246C24.4672 13.071 24.7403 13.3342 24.7652 13.6619V16.0304H24.8297C25.6887 13.7414 27.3024 12.6738 29.4773 12.6738C31.6868 12.6738 33.0672 13.7414 34.0603 16.0304C34.9143 13.7414 36.8557 12.6738 38.9362 12.6738C40.4159 12.6738 42.0346 13.2846 43.0227 14.655C44.1399 16.1793 43.9115 18.3939 43.9115 20.3353L43.9065 31.7705C43.9065 32.1329 43.6036 32.4259 43.2263 32.4259H39.7009C39.3483 32.4011 39.0653 32.118 39.0653 31.7705V22.1675C39.0653 21.4029 39.1348 19.4962 38.966 18.7712C38.7029 17.5547 37.9134 17.2121 36.8905 17.2121C36.0365 17.2121 35.1427 17.7831 34.7802 18.6968C34.4178 19.6104 34.4525 21.1397 34.4525 22.1675V31.7705C34.4525 32.1329 34.1496 32.4259 33.7723 32.4259H30.2469C29.8894 32.4011 29.6113 32.118 29.6113 31.7705L29.6064 22.1675C29.6064 20.1466 29.939 17.1724 27.4316 17.1724C24.8943 17.1724 24.9936 20.0722 24.9936 22.1675V31.7705C24.9936 32.1329 24.6907 32.4259 24.3133 32.4259Z" fill="white"/>
<path fill-rule="evenodd" clip-rule="evenodd" d="M89.5626 12.6738C94.801 12.6738 97.6362 17.1724 97.6362 22.8925C97.6362 28.4189 94.5031 32.8033 89.5626 32.8033C84.4185 32.8033 81.6181 28.3047 81.6181 22.6988C81.6181 17.0582 84.4533 12.6738 89.5626 12.6738ZM89.5924 16.373C86.9906 16.373 86.8267 19.9182 86.8267 22.1278C86.8267 24.3423 86.792 29.0693 89.5626 29.0693C92.2985 29.0693 92.4276 25.256 92.4276 22.9322C92.4276 21.4029 92.3631 19.5756 91.9013 18.1258C91.504 16.8646 90.7146 16.373 89.5924 16.373Z" fill="white"/>
<path fill-rule="evenodd" clip-rule="evenodd" d="M104.429 32.4259H100.913C100.561 32.4011 100.278 32.118 100.278 31.7705L100.273 13.647C100.303 13.3143 100.596 13.0562 100.953 13.0562H104.225C104.533 13.071 104.786 13.2796 104.856 13.5626V16.3333H104.921C105.909 13.8556 107.294 12.6738 109.732 12.6738C111.316 12.6738 112.86 13.2448 113.853 14.8089C114.777 16.2588 114.777 18.6968 114.777 20.4495V31.8549C114.737 32.1727 114.444 32.4259 114.096 32.4259H110.556C110.233 32.4011 109.965 32.1627 109.931 31.8549V22.0136C109.931 20.0324 110.159 17.1327 107.721 17.1327C106.862 17.1327 106.072 17.7087 105.68 18.5826C105.184 19.6898 105.119 20.7921 105.119 22.0136V31.7705C105.114 32.1329 104.806 32.4259 104.429 32.4259Z" fill="white"/>
<path fill-rule="evenodd" clip-rule="evenodd" d="M57.3924 23.7713C57.3924 25.1467 57.4272 26.2937 56.732 27.5152C56.1709 28.5082 55.2772 29.119 54.2891 29.119C52.9335 29.119 52.1391 28.0862 52.1391 26.5618C52.1391 23.5528 54.8353 23.0066 57.3924 23.0066V23.7713ZM60.9525 32.3762C60.7192 32.5848 60.3815 32.5997 60.1184 32.4606C58.9465 31.4874 58.733 31.0356 58.0925 30.1071C56.156 32.0833 54.7806 32.6741 52.2731 32.6741C49.2989 32.6741 46.99 30.8419 46.99 27.1726C46.99 24.3076 48.5392 22.3562 50.7538 21.4028C52.6704 20.5587 55.3467 20.4098 57.3924 20.1764V19.7196C57.3924 18.8804 57.457 17.8874 56.9604 17.1624C56.5334 16.512 55.7092 16.2439 54.9793 16.2439C53.6336 16.2439 52.437 16.934 52.1441 18.3641C52.0845 18.6818 51.8511 18.9947 51.5283 19.0095L48.1072 18.6421C47.8192 18.5776 47.4965 18.3442 47.5809 17.9023C48.3654 13.7513 52.1192 12.5 55.4758 12.5C57.1938 12.5 59.4381 12.9568 60.7937 14.2577C62.5117 15.8615 62.3478 18.0016 62.3478 20.3303V25.8319C62.3478 27.4854 63.033 28.2103 63.6785 29.1041C63.9019 29.4218 63.9516 29.8042 63.6636 30.0425C62.9436 30.6433 61.6626 31.7605 60.9575 32.3861L60.9525 32.3762Z" fill="white"/>
<path fill-rule="evenodd" clip-rule="evenodd" d="M11.1105 23.7713C11.1105 25.1467 11.1452 26.2937 10.4501 27.5151C9.88899 28.5082 9.00019 29.1189 8.00713 29.1189C6.65159 29.1189 5.86211 28.0862 5.86211 26.5618C5.86211 23.5528 8.55828 23.0066 11.1105 23.0066V23.7713ZM14.6706 32.3762C14.4372 32.5847 14.0996 32.5996 13.8364 32.4606C12.6646 31.4874 12.4561 31.0356 11.8106 30.107C9.87409 32.0832 8.50366 32.6741 5.99121 32.6741C3.02194 32.6741 0.708099 30.8419 0.708099 27.1725C0.708099 24.3075 2.26225 22.3562 4.47182 21.4028C6.38843 20.5587 9.06474 20.4098 11.1105 20.1764V19.7196C11.1105 18.8804 11.175 17.8874 10.6834 17.1624C10.2515 16.512 9.42721 16.2439 8.70227 16.2439C7.35667 16.2439 6.15506 16.934 5.86211 18.364C5.80252 18.6818 5.56915 18.9946 5.25137 19.0095L1.8253 18.6421C1.53731 18.5776 1.21953 18.3442 1.29897 17.9023C2.08846 13.7513 5.83728 12.5 9.19384 12.5C10.9118 12.5 13.1562 12.9568 14.5117 14.2577C16.2297 15.8615 16.0659 18.0016 16.0659 20.3303V25.8319C16.0659 27.4854 16.7511 28.2103 17.3966 29.1041C17.625 29.4218 17.6746 29.8042 17.3866 30.0425C16.6667 30.6433 15.3856 31.7605 14.6805 32.3861L14.6706 32.3762Z" fill="white"/>
</g>
<defs>
<clipPath id="clip0_18001_254">
<rect width="114.583" height="50" fill="white" transform="translate(0.708344)"/>
</clipPath>
</defs>
</svg>
