<svg width="152" height="16" viewBox="0 0 152 16" fill="none" xmlns="http://www.w3.org/2000/svg">
<path d="M1.52 15C1.14667 15 0.826667 14.8867 0.56 14.66C0.306667 14.42 0.18 14.1267 0.18 13.78V2.22C0.18 1.87333 0.306667 1.58667 0.56 1.36C0.813333 1.12 1.13333 0.999999 1.52 0.999999H5.96C7.14667 0.999999 8.19333 1.22667 9.1 1.68C10.02 2.13333 10.7267 2.77333 11.22 3.6C11.7267 4.41333 11.98 5.34667 11.98 6.4V9.56C11.98 10.6133 11.7267 11.5533 11.22 12.38C10.7133 13.2067 10 13.8533 9.08 14.32C8.17333 14.7733 7.13333 15 5.96 15H1.52ZM5.76 12.7C6.92 12.7 7.8 12.44 8.4 11.92C9 11.3867 9.3 10.6067 9.3 9.58V6.36C9.3 5.36 9 4.6 8.4 4.08C7.8 3.56 6.92 3.3 5.76 3.3H2.86V12.7H5.76ZM13.7886 2.82C13.7886 2.19333 14.0219 1.70667 14.4886 1.36C14.9553 0.999999 15.6153 0.819999 16.4686 0.819999V13.18C16.4686 13.82 16.2353 14.3133 15.7686 14.66C15.3019 15.0067 14.6419 15.18 13.7886 15.18V2.82ZM24.3689 15.18C23.1822 15.18 22.1222 14.9533 21.1889 14.5C20.2689 14.0467 19.5489 13.4133 19.0289 12.6C18.5089 11.7867 18.2489 10.86 18.2489 9.82V6.14C18.2489 5.1 18.5022 4.18 19.0089 3.38C19.5289 2.56667 20.2422 1.94 21.1489 1.5C22.0556 1.04667 23.0956 0.819999 24.2689 0.819999C25.4422 0.819999 26.4822 0.999999 27.3889 1.36C28.3089 1.70667 29.0222 2.19333 29.5289 2.82C30.0356 3.44667 30.2889 4.16667 30.2889 4.98C30.2889 5.47333 30.1222 5.86 29.7889 6.14C29.4689 6.42 29.0356 6.56 28.4889 6.56C28.2222 6.56 27.9289 6.52 27.6089 6.44C27.6356 6.12 27.6489 5.80667 27.6489 5.5C27.6489 4.79333 27.3356 4.22 26.7089 3.78C26.0822 3.34 25.2689 3.12 24.2689 3.12C23.2822 3.12 22.4756 3.4 21.8489 3.96C21.2356 4.52 20.9289 5.24667 20.9289 6.14V9.82C20.9289 10.7133 21.2489 11.4467 21.8889 12.02C22.5289 12.5933 23.3556 12.88 24.3689 12.88C25.3556 12.88 26.1556 12.6533 26.7689 12.2C27.3956 11.7333 27.7089 11.1333 27.7089 10.4V9.78H25.9889C25.4822 9.78 25.0689 9.58667 24.7489 9.2C24.4289 8.8 24.2689 8.28667 24.2689 7.66H29.1289C29.5022 7.66 29.8022 7.77333 30.0289 8C30.2556 8.22667 30.3689 8.52667 30.3689 8.9V10.46C30.3689 11.38 30.1156 12.2 29.6089 12.92C29.1022 13.6267 28.3889 14.18 27.4689 14.58C26.5622 14.98 25.5289 15.18 24.3689 15.18ZM32.1394 2.82C32.1394 2.19333 32.3727 1.70667 32.8394 1.36C33.306 0.999999 33.966 0.819999 34.8194 0.819999V13.18C34.8194 13.82 34.586 14.3133 34.1194 14.66C33.6527 15.0067 32.9927 15.18 32.1394 15.18V2.82ZM41.1597 3.32H36.3397C36.3397 1.77333 37.0397 0.999999 38.4397 0.999999H48.6597C48.6597 2.54667 47.953 3.32 46.5397 3.32H43.8397V13.2C43.8397 13.84 43.613 14.3333 43.1597 14.68C42.7064 15.0133 42.0397 15.18 41.1597 15.18V3.32ZM48.932 15.18C48.3587 15.1133 47.9054 14.9133 47.572 14.58C47.252 14.2467 47.092 13.8267 47.092 13.32C47.092 12.9333 47.1854 12.5333 47.372 12.12L51.952 1.7C52.2054 1.11333 52.6454 0.819999 53.272 0.819999C53.8854 0.819999 54.3187 1.11333 54.572 1.7L59.152 12.12C59.3387 12.56 59.432 12.96 59.432 13.32C59.432 13.8267 59.2654 14.2467 58.932 14.58C58.612 14.9133 58.1587 15.1133 57.572 15.18L55.892 11.38H50.632L48.932 15.18ZM55.072 9.1L52.872 3.62L52.632 3.72L53.112 4.96L51.432 9.1H55.072ZM62.1792 15C61.7926 15 61.4592 14.86 61.1792 14.58C60.9126 14.3 60.7792 13.9667 60.7792 13.58V2.8C60.7792 2.13333 60.9992 1.64 61.4392 1.32C61.8792 0.986666 62.5526 0.819999 63.4592 0.819999V12.68H68.8592C69.4859 12.68 69.9592 12.88 70.2792 13.28C70.5992 13.6667 70.7592 14.24 70.7592 15H62.1792ZM77.8742 15.18C77.3009 15.1133 76.8475 14.9133 76.5142 14.58C76.1942 14.2467 76.0342 13.8267 76.0342 13.32C76.0342 12.9333 76.1275 12.5333 76.3142 12.12L80.8942 1.7C81.1475 1.11333 81.5875 0.819999 82.2142 0.819999C82.8275 0.819999 83.2609 1.11333 83.5142 1.7L88.0942 12.12C88.2809 12.56 88.3742 12.96 88.3742 13.32C88.3742 13.8267 88.2075 14.2467 87.8742 14.58C87.5542 14.9133 87.1009 15.1133 86.5142 15.18L84.8342 11.38H79.5742L77.8742 15.18ZM84.0142 9.1L81.8142 3.62L81.5742 3.72L82.0542 4.96L80.3742 9.1H84.0142ZM94.9736 15.18C93.7869 15.18 92.7269 14.9533 91.7936 14.5C90.8736 14.0467 90.1536 13.4133 89.6336 12.6C89.1136 11.7867 88.8536 10.86 88.8536 9.82V6.14C88.8536 5.1 89.1069 4.18 89.6136 3.38C90.1336 2.56667 90.8469 1.94 91.7536 1.5C92.6603 1.04667 93.7003 0.819999 94.8736 0.819999C96.0469 0.819999 97.0869 0.999999 97.9936 1.36C98.9136 1.70667 99.6269 2.19333 100.134 2.82C100.64 3.44667 100.894 4.16667 100.894 4.98C100.894 5.47333 100.727 5.86 100.394 6.14C100.074 6.42 99.6403 6.56 99.0936 6.56C98.8269 6.56 98.5336 6.52 98.2136 6.44C98.2403 6.12 98.2536 5.80667 98.2536 5.5C98.2536 4.79333 97.9403 4.22 97.3136 3.78C96.6869 3.34 95.8736 3.12 94.8736 3.12C93.8869 3.12 93.0803 3.4 92.4536 3.96C91.8403 4.52 91.5336 5.24667 91.5336 6.14V9.82C91.5336 10.7133 91.8536 11.4467 92.4936 12.02C93.1336 12.5933 93.9603 12.88 94.9736 12.88C95.9603 12.88 96.7603 12.6533 97.3736 12.2C98.0003 11.7333 98.3136 11.1333 98.3136 10.4V9.78H96.5936C96.0869 9.78 95.6736 9.58667 95.3536 9.2C95.0336 8.8 94.8736 8.28667 94.8736 7.66H99.7336C100.107 7.66 100.407 7.77333 100.634 8C100.86 8.22667 100.974 8.52667 100.974 8.9V10.46C100.974 11.38 100.72 12.2 100.214 12.92C99.7069 13.6267 98.9936 14.18 98.0736 14.58C97.1669 14.98 96.1336 15.18 94.9736 15.18ZM102.344 2.22C102.344 1.88667 102.471 1.6 102.724 1.36C102.991 1.12 103.311 0.999999 103.684 0.999999H112.604C112.604 1.8 112.464 2.38667 112.184 2.76C111.917 3.12 111.477 3.3 110.864 3.3H105.024V6.78H110.344C110.344 7.58 110.204 8.16667 109.924 8.54C109.657 8.9 109.217 9.08 108.604 9.08H105.024V12.7H111.284C111.884 12.7 112.317 12.8867 112.584 13.26C112.864 13.62 113.004 14.2 113.004 15H103.684C103.311 15 102.991 14.8867 102.724 14.66C102.471 14.42 102.344 14.1267 102.344 13.78V2.22ZM114.342 2.94C114.342 2.28667 114.562 1.77333 115.002 1.4C115.442 1.01333 116.035 0.819999 116.782 0.819999L123.542 11.38L123.742 11.22L122.922 9.86V0.819999C123.788 0.819999 124.442 0.986666 124.882 1.32C125.335 1.65333 125.562 2.14667 125.562 2.8V13.36C125.562 13.8533 125.348 14.28 124.922 14.64C124.508 15 124.028 15.18 123.482 15.18L116.362 4.04L116.162 4.22L116.982 5.58V13.2C116.982 13.8533 116.755 14.3467 116.302 14.68C115.862 15.0133 115.208 15.18 114.342 15.18V2.94ZM132.959 15.18C131.772 15.18 130.712 14.9533 129.779 14.5C128.859 14.0467 128.139 13.4133 127.619 12.6C127.099 11.7867 126.839 10.86 126.839 9.82V6.14C126.839 5.1 127.092 4.18 127.599 3.38C128.119 2.56667 128.832 1.94 129.739 1.5C130.645 1.04667 131.685 0.819999 132.859 0.819999C134.032 0.819999 135.072 0.999999 135.979 1.36C136.899 1.70667 137.612 2.2 138.119 2.84C138.625 3.46667 138.879 4.18667 138.879 5C138.879 5.49333 138.712 5.88667 138.379 6.18C138.059 6.46 137.625 6.6 137.079 6.6C136.812 6.6 136.519 6.56 136.199 6.48C136.225 6.16 136.239 5.84667 136.239 5.54C136.239 4.83333 135.925 4.26 135.299 3.82C134.672 3.38 133.859 3.16 132.859 3.16C131.872 3.16 131.065 3.44 130.439 4C129.825 4.54667 129.519 5.26 129.519 6.14V9.82C129.519 10.7133 129.839 11.44 130.479 12C131.119 12.56 131.945 12.84 132.959 12.84C133.959 12.84 134.772 12.62 135.399 12.18C136.025 11.74 136.339 11.1733 136.339 10.48C136.339 10.16 136.325 9.85333 136.299 9.56C136.632 9.49333 136.912 9.46 137.139 9.46C137.699 9.46 138.145 9.60667 138.479 9.9C138.812 10.1933 138.979 10.5933 138.979 11.1C138.979 11.8867 138.725 12.5933 138.219 13.22C137.712 13.8333 136.999 14.3133 136.079 14.66C135.172 15.0067 134.132 15.18 132.959 15.18ZM143.931 9.98L138.991 1.1C139.111 1.02 139.305 0.953333 139.571 0.899999C139.838 0.846666 140.078 0.819999 140.291 0.819999C140.785 0.819999 141.198 0.919999 141.531 1.12C141.865 1.32 142.145 1.63333 142.371 2.06L145.211 7.4L144.671 8.54L144.871 8.62L148.171 2.06C148.585 1.23333 149.278 0.819999 150.251 0.819999C150.465 0.819999 150.705 0.846666 150.971 0.899999C151.238 0.953333 151.431 1.02 151.551 1.1L146.611 10V13.2C146.611 13.84 146.378 14.3333 145.911 14.68C145.458 15.0133 144.798 15.18 143.931 15.18V9.98Z" fill="white"/>
</svg>
