<svg width="128" height="50" viewBox="0 0 128 50" fill="none" xmlns="http://www.w3.org/2000/svg">
<g clip-path="url(#clip0_18001_237)">
<path d="M40.4838 33.7806L42.0131 30.2061C43.6876 31.4462 45.8716 32.1025 48.0562 32.1025C49.658 32.1025 50.6772 31.4827 50.6772 30.5345C50.6406 27.9083 41.03 29.9508 40.9569 23.3481C40.9203 19.9924 43.9058 17.4027 48.1292 17.4027C50.6406 17.4027 53.1531 18.023 54.9367 19.4458L53.5076 23.0964C51.8666 22.0412 49.8397 21.3056 47.9105 21.3056C46.6 21.3056 45.7259 21.9253 45.7259 22.7283C45.7625 25.318 55.4468 23.8953 55.5559 30.2061C55.5559 33.6349 52.643 36.0424 48.4926 36.0424C45.4351 36.0424 42.6318 35.313 40.4833 33.7806H40.4838ZM101.378 28.9118C100.992 29.5977 100.43 30.1685 99.7507 30.5658C99.0713 30.9631 98.2984 31.1725 97.5114 31.1726C95.0584 31.1726 93.0702 29.1802 93.0702 26.7226C93.0702 24.2649 95.0584 22.2725 97.5114 22.2725C98.2984 22.2726 99.0713 22.482 99.7507 22.8793C100.43 23.2766 100.992 23.8474 101.378 24.5333L105.629 22.1733C104.037 19.3272 100.999 17.4027 97.5114 17.4027C92.3742 17.4027 88.2098 21.575 88.2098 26.7226C88.2098 31.8696 92.3742 36.0424 97.5114 36.0424C100.999 36.0424 104.037 34.1179 105.629 31.2718L101.378 28.9118ZM58.3148 35.6774H63.63V9.64453H58.3153L58.3148 35.6774ZM108.314 9.64453V35.6774H113.629V27.878L119.927 35.6774H126.721L118.712 26.4119L126.138 17.7661H119.636L113.629 24.9541V9.64453H108.314ZM80.0052 17.7672V19.8833C79.1317 18.424 76.9837 17.4027 74.7266 17.4027C70.0666 17.4027 66.3899 21.5248 66.3899 26.7043C66.3899 31.8837 70.0666 36.0424 74.7266 36.0424C76.9837 36.0424 79.1317 35.0211 80.0052 33.5618V35.6774H85.3204V17.7672H80.0052ZM80.0052 28.9478C79.2408 30.2244 77.639 31.1721 75.8554 31.1721C73.4019 31.1721 71.4137 29.1802 71.4137 26.7226C71.4137 24.2649 73.4019 22.2725 75.8554 22.2725C77.639 22.2725 79.2408 23.2572 80.0052 24.5699V28.9478Z" fill="white"/>
<path d="M12.4149 9.06641C10.6924 9.06641 9.29625 10.4657 9.29625 12.1913C9.29584 12.6012 9.37618 13.0073 9.53268 13.3862C9.68918 13.7651 9.91879 14.1095 10.2084 14.3996C10.498 14.6898 10.8419 14.9201 11.2205 15.0774C11.5991 15.2346 12.0049 15.3158 12.4149 15.3162H15.534V12.1913C15.5347 11.3633 15.2065 10.5689 14.6216 9.98293C14.0366 9.39692 13.2429 9.06724 12.4149 9.06641ZM12.4149 17.3994H4.09802C2.37555 17.3994 0.979401 18.7987 0.979401 20.5248C0.979401 22.2505 2.37555 23.6497 4.09802 23.6497H12.4154C14.1373 23.6497 15.534 22.2505 15.534 20.5248C15.534 18.7987 14.1373 17.3994 12.4149 17.3994Z" fill="white"/>
<path d="M32.1668 20.5248C32.1668 18.7987 30.7702 17.3994 29.0477 17.3994C27.3252 17.3994 25.9291 18.7987 25.9291 20.5248V23.6497H29.0477C29.8757 23.6489 30.6694 23.3192 31.2544 22.7332C31.8393 22.1472 32.1675 21.3528 32.1668 20.5248ZM23.85 20.5248V12.1913C23.8507 11.3633 23.5225 10.5689 22.9375 9.98293C22.3526 9.39691 21.5588 9.06724 20.7308 9.06641C19.0084 9.06641 17.6122 10.4657 17.6122 12.1913V20.5243C17.6122 22.251 19.0084 23.6503 20.7308 23.6503C21.5588 23.6494 22.3526 23.3197 22.9375 22.7337C23.5225 22.1477 23.8507 21.3534 23.85 20.5254" fill="white"/>
<path d="M20.7308 40.3177C21.5588 40.3169 22.3526 39.9872 22.9375 39.4012C23.5225 38.8152 23.8507 38.0208 23.85 37.1928C23.8507 36.3648 23.5225 35.5705 22.9375 34.9845C22.3526 34.3984 21.5588 34.0688 20.7308 34.0679H17.6122V37.1928C17.6122 38.9184 19.0084 40.3177 20.7308 40.3177ZM20.7308 31.9847H29.0482C30.7702 31.9847 32.1668 30.5854 32.1668 28.8593C32.1675 28.0313 31.8393 27.2369 31.2544 26.6509C30.6694 26.0649 29.8757 25.7352 29.0477 25.7344H20.7308C19.0084 25.7344 17.6122 27.1337 17.6122 28.8593C17.6118 29.2692 17.6921 29.6752 17.8486 30.0541C18.0051 30.4331 18.2347 30.7774 18.5243 31.0676C18.8139 31.3578 19.1578 31.5881 19.5364 31.7453C19.915 31.9026 20.3209 31.9837 20.7308 31.9842" fill="white"/>
<path d="M0.979402 28.8593C0.978991 29.2692 1.05933 29.6752 1.21583 30.0541C1.37234 30.4331 1.60194 30.7774 1.89153 31.0676C2.18112 31.3578 2.52503 31.5881 2.90362 31.7453C3.28221 31.9026 3.68807 31.9837 4.09803 31.9842C4.92601 31.9833 5.71977 31.6536 6.30471 31.0676C6.88965 30.4816 7.21786 29.6873 7.21717 28.8593V25.7344H4.09803C2.37555 25.7344 0.979402 27.1337 0.979402 28.8593ZM9.29625 28.8593V37.1923C9.29625 38.9184 10.6924 40.3177 12.4149 40.3177C13.2429 40.3169 14.0366 39.9872 14.6216 39.4012C15.2065 38.8152 15.5347 38.0208 15.534 37.1928V28.8593C15.5344 28.4493 15.4541 28.0432 15.2975 27.6643C15.141 27.2853 14.9114 26.9409 14.6217 26.6507C14.3321 26.3606 13.9881 26.1303 13.6094 25.9731C13.2308 25.8158 12.8249 25.7347 12.4149 25.7344C10.6924 25.7344 9.29625 27.1337 9.29625 28.8593Z" fill="white"/>
</g>
<defs>
<clipPath id="clip0_18001_237">
<rect width="126.042" height="50" fill="white" transform="translate(0.979156)"/>
</clipPath>
</defs>
</svg>
