<svg width="104" height="50" viewBox="0 0 104 50" fill="none" xmlns="http://www.w3.org/2000/svg">
<g clip-path="url(#clip0_18001_234)">
<path fill-rule="evenodd" clip-rule="evenodd" d="M83.9865 21.4581C84.3763 22.1306 84.5038 22.8958 84.5459 23.756L84.6013 24.9025V32.92L84.6578 34.0678C84.7709 35.9422 86.1533 37.3282 88.0421 37.4461L89.1839 37.5026V24.9025L89.2404 23.756C89.2873 22.9054 89.4137 22.1258 89.8095 21.4484C90.2128 20.7537 90.7918 20.1773 91.4884 19.7771C92.185 19.3769 92.9745 19.167 93.7779 19.1684C94.5812 19.1699 95.37 19.3827 96.0651 19.7854C96.7602 20.1881 97.3371 20.7667 97.7379 21.4629C98.1277 22.1354 98.2492 22.915 98.2962 23.756L98.3527 24.8989V32.92L98.4093 34.0678C98.5272 35.9518 99.8987 37.3378 101.794 37.4461L102.935 37.5026V23.756C102.935 21.3252 101.97 18.9939 100.251 17.2748C98.533 15.5556 96.2021 14.5893 93.7713 14.5883C92.4703 14.587 91.184 14.8633 89.9983 15.3987C88.8125 15.9342 87.7548 16.7166 86.8956 17.6936C86.036 16.717 84.9782 15.9348 83.7926 15.3992C82.607 14.8635 81.3208 14.5867 80.0199 14.5871C78.1166 14.5871 76.3504 15.1646 74.8874 16.162C73.9947 15.1658 71.9976 14.5871 70.851 14.5871V37.5026L71.9976 37.4461C73.9153 37.3197 75.3013 35.9711 75.3759 34.0678L75.4372 32.92V24.9025L75.4938 23.756C75.5419 22.8909 75.6622 22.1306 76.0532 21.4532C76.4569 20.7589 77.0357 20.1826 77.7317 19.782C78.4277 19.3813 79.2167 19.1702 80.0199 19.1698C80.8236 19.1699 81.6132 19.3814 82.3094 19.7831C83.0056 20.1847 83.584 20.7623 83.9865 21.4581ZM5.54071 37.4473L6.68726 37.5026H23.8736L23.817 36.3597C23.6618 34.4756 22.3276 33.0993 20.4375 32.9765L19.2909 32.92H8.98038L22.727 19.1686L22.6705 18.0268C22.5814 16.1235 21.1906 14.7484 19.2909 14.6437L18.1444 14.592L0.958099 14.5871L1.01465 15.7337C1.16503 17.5997 2.51852 19.0049 4.39295 19.1132L5.54071 19.1698H15.8513L2.10465 32.9212L2.1612 34.0678C2.27429 35.9566 3.6374 37.3246 5.54071 37.4461V37.4473ZM66.3526 17.9414C67.4168 19.0053 68.2609 20.2684 68.8369 21.6587C69.4128 23.0489 69.7092 24.5389 69.7092 26.0437C69.7092 27.5485 69.4128 29.0385 68.8369 30.4287C68.2609 31.8189 67.4168 33.082 66.3526 34.146C64.2027 36.2942 61.2878 37.5009 58.2486 37.5009C55.2093 37.5009 52.2944 36.2942 50.1445 34.146C45.6701 29.6716 45.6701 22.4157 50.1445 17.9414C51.2076 16.8778 52.4699 16.0341 53.8592 15.4584C55.2484 14.8826 56.7375 14.5862 58.2413 14.5859C59.7476 14.5849 61.2393 14.8808 62.6311 15.4568C64.023 16.0328 65.2876 16.8775 66.3526 17.9426V17.9414ZM63.1103 21.1862C64.3991 22.4759 65.123 24.2246 65.123 26.0479C65.123 27.8712 64.3991 29.6199 63.1103 30.9096C61.8205 32.1984 60.0718 32.9223 58.2486 32.9223C56.4253 32.9223 54.6766 32.1984 53.3868 30.9096C52.098 29.6199 51.3741 27.8712 51.3741 26.0479C51.3741 24.2246 52.098 22.4759 53.3868 21.1862C54.6766 19.8974 56.4253 19.1734 58.2486 19.1734C60.0718 19.1734 61.8205 19.8974 63.1103 21.1862ZM34.1938 14.5859C35.6977 14.5863 37.1868 14.883 38.5761 15.4589C39.9653 16.0348 41.2275 16.8788 42.2906 17.9426C46.7662 22.4157 46.7662 29.6728 42.2906 34.146C40.1407 36.2942 37.2258 37.5009 34.1865 37.5009C31.1473 37.5009 28.2324 36.2942 26.0825 34.146C21.6081 29.6716 21.6081 22.4157 26.0825 17.9414C27.1456 16.8778 28.4079 16.0341 29.7972 15.4584C31.1864 14.8826 32.6755 14.5862 34.1793 14.5859H34.1938ZM39.0483 21.1837C40.3374 22.4735 41.0616 24.2225 41.0616 26.0461C41.0616 27.8697 40.3374 29.6186 39.0483 30.9084C37.7585 32.1972 36.0098 32.9211 34.1865 32.9211C32.3632 32.9211 30.6146 32.1972 29.3248 30.9084C28.036 29.6187 27.3121 27.87 27.3121 26.0467C27.3121 24.2234 28.036 22.4747 29.3248 21.1849C30.6146 19.8962 32.3632 19.1722 34.1865 19.1722C36.0098 19.1722 37.7585 19.8962 39.0483 21.1849V21.1837Z" fill="white"/>
</g>
<defs>
<clipPath id="clip0_18001_234">
<rect width="102.083" height="50" fill="white" transform="translate(0.958344)"/>
</clipPath>
</defs>
</svg>
